<?xml version="1.0" encoding="utf-8"?>
<!-- Generator: Adobe Illustrator 16.0.0, SVG Export Plug-In . SVG Version: 6.00 Build 0)  -->
<!DOCTYPE svg PUBLIC "-//W3C//DTD SVG 1.1//EN" "http://www.w3.org/Graphics/SVG/1.1/DTD/svg11.dtd">
<svg version="1.1" id="Layer_1" xmlns="http://www.w3.org/2000/svg" xmlns:xlink="http://www.w3.org/1999/xlink" x="0px" y="0px"
	 width="100px" height="100px" viewBox="0 0 100 100" enable-background="new 0 0 100 100" xml:space="preserve">
<g>
	<path d="M38.808,28.393c0.648,0,1.175-0.526,1.175-1.175v-4.895c0-0.649-0.526-1.175-1.175-1.175s-1.175,0.526-1.175,1.175v4.895
		C37.633,27.867,38.159,28.393,38.808,28.393z"/>
	<path d="M50.5,34.365c0.301,0,0.601-0.115,0.831-0.344l4.209-4.209c0.459-0.459,0.459-1.204,0-1.661
		c-0.459-0.459-1.203-0.459-1.662,0l-4.209,4.209c-0.459,0.459-0.459,1.204,0,1.661C49.899,34.25,50.2,34.365,50.5,34.365z"/>
	<path d="M24.413,34.021c0.229,0.229,0.529,0.344,0.83,0.344s0.602-0.115,0.83-0.344c0.459-0.459,0.459-1.202,0-1.661l-4.209-4.209
		c-0.459-0.459-1.203-0.459-1.661,0c-0.459,0.459-0.459,1.202,0,1.661L24.413,34.021z"/>
	<path d="M22.208,44.61c0-0.648-0.525-1.175-1.175-1.175h-5.286c-0.648,0-1.175,0.527-1.175,1.175c0,0.649,0.526,1.175,1.175,1.175
		h5.286C21.683,45.785,22.208,45.26,22.208,44.61z"/>
	<path d="M63.755,39.542c-3.335,0-6.582,0.893-9.443,2.59c-1.416-1.035-3.021-1.778-4.715-2.196
		c-2.186-5.054-7.717-8.035-13.292-6.812c-6.328,1.386-10.348,7.662-8.961,13.989c0.096,0.436,0.226,0.854,0.369,1.267
		c-6.429,1.005-11.368,6.565-11.368,13.273c0,7.418,6.033,13.452,13.451,13.452c2.045,0,4.053-0.468,5.884-1.364
		c1.951,5.193,6.927,8.706,12.575,8.706c4.645,0,8.924-2.384,11.381-6.279c1.373,0.315,2.754,0.476,4.119,0.476
		c10.229,0,18.551-8.323,18.551-18.553C82.306,47.864,73.983,39.542,63.755,39.542z M36.808,35.419
		c3.951-0.865,7.867,0.911,9.928,4.137c-0.119-0.003-0.237-0.014-0.356-0.014c-5.886,0-10.961,3.729-12.763,9.215
		c-1.123-0.333-2.279-0.51-3.454-0.542c-0.215-0.512-0.4-1.042-0.522-1.604C28.53,41.55,31.745,36.53,36.808,35.419z M63.755,74.295
		c-1.444,0-2.914-0.208-4.369-0.615c-0.531-0.149-1.09,0.091-1.352,0.574c-1.943,3.604-5.689,5.844-9.779,5.844
		c-5.08,0-9.5-3.444-10.748-8.375c-0.093-0.365-0.355-0.665-0.705-0.803c-0.14-0.055-0.287-0.083-0.434-0.083
		c-0.221,0-0.439,0.062-0.631,0.182c-1.786,1.136-3.84,1.736-5.941,1.736c-6.121,0-11.102-4.981-11.102-11.103
		s4.98-11.103,11.102-11.103c1.434,0,2.838,0.275,4.174,0.819c0.319,0.131,0.681,0.114,0.986-0.047
		c0.307-0.16,0.526-0.446,0.603-0.782c1.149-5.093,5.599-8.649,10.82-8.649c0.49,0,0.977,0.042,1.459,0.106
		c0.876,0.117,1.731,0.335,2.552,0.653c1.115,0.434,2.165,1.04,3.096,1.815c0.396,0.332,0.964,0.364,1.396,0.081
		c2.646-1.737,5.715-2.655,8.873-2.655c8.934,0,16.202,7.268,16.202,16.201C79.957,67.027,72.688,74.295,63.755,74.295z"/>
</g>
</svg>
