<?xml version="1.0" encoding="utf-8"?>
<!-- Generator: Adobe Illustrator 16.0.0, SVG Export Plug-In . SVG Version: 6.00 Build 0)  -->
<!DOCTYPE svg PUBLIC "-//W3C//DTD SVG 1.1//EN" "http://www.w3.org/Graphics/SVG/1.1/DTD/svg11.dtd">
<svg version="1.1" id="Layer_1" xmlns="http://www.w3.org/2000/svg" xmlns:xlink="http://www.w3.org/1999/xlink" x="0px" y="0px"
	 width="100px" height="100px" viewBox="0 0 100 100" enable-background="new 0 0 100 100" xml:space="preserve">
<path d="M84.768,39.772c0.015-0.501-0.292-0.957-0.763-1.133c-0.469-0.173-1.001-0.032-1.32,0.355
	c-1.795,2.189-4.443,3.445-7.27,3.445c-5.182,0-9.398-4.216-9.398-9.398c0-2.61,1.053-5.036,2.964-6.836
	c0.366-0.344,0.472-0.883,0.265-1.34c-0.208-0.458-0.682-0.734-1.184-0.684c-7.521,0.73-13.252,6.763-13.706,14.212
	c-2.022-1.199-4.378-1.88-6.884-1.88c-0.119,0-0.238,0.01-0.357,0.015c-0.969,0.025-1.929,0.149-2.861,0.38
	c-1.691,0.419-3.297,1.161-4.715,2.197c-2.861-1.698-6.107-2.591-9.443-2.591c-10.229,0-18.551,8.323-18.551,18.551
	c0,10.229,8.322,18.552,18.551,18.552c1.365,0,2.747-0.16,4.119-0.476c2.457,3.896,6.736,6.28,11.381,6.28
	c5.649,0,10.625-3.513,12.576-8.708c1.831,0.897,3.839,1.365,5.883,1.365c7.418,0,13.452-6.034,13.452-13.452
	c0-2-0.446-3.893-1.233-5.598C81.194,50.623,84.604,45.656,84.768,39.772z M64.054,69.728c-2.101,0-4.154-0.601-5.94-1.737
	c-0.191-0.12-0.41-0.182-0.631-0.182c-0.146,0-0.294,0.027-0.435,0.083c-0.35,0.138-0.611,0.438-0.703,0.803
	c-1.249,4.931-5.669,8.375-10.75,8.375c-4.089,0-7.836-2.239-9.779-5.844c-0.261-0.484-0.82-0.723-1.352-0.574
	c-1.454,0.406-2.924,0.614-4.369,0.614c-8.934,0-16.201-7.268-16.201-16.202c0-8.934,7.268-16.202,16.201-16.202
	c3.158,0,6.227,0.919,8.873,2.656c0.434,0.282,1,0.25,1.397-0.081c0.931-0.775,1.979-1.381,3.096-1.815
	c0.819-0.319,1.675-0.537,2.552-0.654c0.482-0.064,0.969-0.106,1.459-0.106c2.631,0,5.065,0.905,6.981,2.454
	c1.885,1.523,3.269,3.67,3.839,6.195c0.076,0.337,0.296,0.624,0.602,0.783c0.307,0.161,0.668,0.178,0.986,0.048
	c0.113-0.047,0.23-0.081,0.346-0.122c1.232-0.457,2.518-0.697,3.828-0.697c3.56,0,6.725,1.688,8.757,4.302
	c0.499,0.641,0.927,1.338,1.277,2.079c0.679,1.436,1.069,3.032,1.069,4.722C75.157,64.747,70.176,69.728,64.054,69.728z
	 M75.104,50.985c-2.054-2.956-5.259-5.055-8.966-5.634c-0.682-0.106-1.373-0.178-2.084-0.178c-0.122,0-0.244,0.009-0.365,0.013
	c-1.175,0.032-2.331,0.209-3.454,0.542c-0.713-2.171-1.946-4.061-3.533-5.562c-0.017-0.273-0.041-0.544-0.041-0.821
	c0-5.594,3.517-10.375,8.564-12.15c-1.017,1.756-1.557,3.754-1.557,5.846c0,6.479,5.27,11.748,11.747,11.748
	c2.367,0,4.637-0.706,6.551-1.993C80.972,46.442,78.438,49.404,75.104,50.985z"/>
</svg>
