<?xml version="1.0" encoding="utf-8"?>
<!-- Generator: Adobe Illustrator 16.0.0, SVG Export Plug-In . SVG Version: 6.00 Build 0)  -->
<!DOCTYPE svg PUBLIC "-//W3C//DTD SVG 1.1//EN" "http://www.w3.org/Graphics/SVG/1.1/DTD/svg11.dtd">
<svg version="1.1" id="Layer_1" xmlns="http://www.w3.org/2000/svg" xmlns:xlink="http://www.w3.org/1999/xlink" x="0px" y="0px"
	 width="100px" height="100px" viewBox="0 0 100 100" enable-background="new 0 0 100 100" xml:space="preserve">
<g>
	<path d="M50.123,77.653c-5.649,0-10.625-3.513-12.576-8.707c-1.831,0.896-3.839,1.365-5.884,1.365
		c-7.417,0-13.452-6.036-13.452-13.452c0-7.418,6.034-13.452,13.452-13.452c1.3,0,2.58,0.186,3.82,0.555
		c1.802-5.486,6.877-9.216,12.763-9.216c2.854,0,5.638,0.915,7.934,2.592c2.861-1.697,6.107-2.592,9.442-2.592
		c10.229,0,18.551,8.322,18.551,18.552S75.852,71.85,65.623,71.85c-1.365,0-2.747-0.159-4.119-0.477
		C59.047,75.27,54.767,77.653,50.123,77.653z M38.235,66.042c0.147,0,0.294,0.027,0.434,0.084c0.35,0.139,0.612,0.438,0.705,0.803
		c1.248,4.931,5.668,8.375,10.749,8.375c4.089,0,7.835-2.239,9.779-5.844c0.261-0.484,0.821-0.723,1.352-0.574
		c1.455,0.408,2.925,0.614,4.369,0.614c8.934,0,16.202-7.268,16.202-16.202s-7.268-16.202-16.202-16.202
		c-3.158,0-6.227,0.918-8.873,2.656c-0.433,0.283-1,0.251-1.397-0.08c-1.991-1.661-4.515-2.576-7.106-2.576
		c-5.221,0-9.67,3.557-10.82,8.649c-0.076,0.337-0.296,0.624-0.602,0.783c-0.306,0.159-0.667,0.177-0.987,0.047
		c-1.336-0.544-2.74-0.819-4.174-0.819c-6.122,0-11.102,4.98-11.102,11.104c0,6.121,4.98,11.103,11.102,11.103
		c2.101,0,4.155-0.602,5.941-1.736C37.796,66.104,38.015,66.042,38.235,66.042z"/>
</g>
</svg>
