<?xml version="1.0" encoding="utf-8"?>
<!-- Generator: Adobe Illustrator 16.0.0, SVG Export Plug-In . SVG Version: 6.00 Build 0)  -->
<!DOCTYPE svg PUBLIC "-//W3C//DTD SVG 1.1//EN" "http://www.w3.org/Graphics/SVG/1.1/DTD/svg11.dtd">
<svg version="1.1" id="Layer_1" xmlns="http://www.w3.org/2000/svg" xmlns:xlink="http://www.w3.org/1999/xlink" x="0px" y="0px"
	 width="100px" height="100px" viewBox="0 0 100 100" enable-background="new 0 0 100 100" xml:space="preserve">
<path d="M86.694,34.759c0-7.134-5.805-12.94-12.94-12.94c-2.172,0-4.311,0.551-6.213,1.595c-1.559-1.03-3.418-1.595-5.284-1.595
	c-3.931,0-7.416,2.374-8.862,5.967c-0.691-0.157-1.398-0.236-2.109-0.236c-5.275,0-9.566,4.292-9.566,9.566
	c0,0.695,0.079,1.372,0.221,2.024c-2.592,1.626-4.601,4.125-5.6,7.167c-1.24-0.369-2.52-0.558-3.82-0.558
	c-7.417,0-13.452,6.035-13.452,13.453c0,7.417,6.034,13.451,13.452,13.451c2.045,0,4.052-0.468,5.884-1.362
	c1.951,5.193,6.926,8.705,12.576,8.705c4.644,0,8.924-2.384,11.38-6.277c1.373,0.313,2.754,0.475,4.119,0.475
	c10.229,0,18.551-8.322,18.551-18.552c0-3.963-1.26-7.632-3.386-10.649C84.709,42.623,86.694,38.924,86.694,34.759z M82.682,55.642
	c0,8.934-7.269,16.202-16.202,16.202c-1.444,0-2.915-0.206-4.369-0.615c-0.531-0.147-1.09,0.092-1.352,0.574
	c-1.943,3.604-5.69,5.844-9.779,5.844c-5.081,0-9.501-3.444-10.749-8.375c-0.092-0.364-0.354-0.663-0.705-0.803
	c-0.14-0.055-0.287-0.083-0.434-0.083c-0.22,0-0.439,0.063-0.63,0.184c-1.786,1.136-3.84,1.735-5.941,1.735
	c-6.122,0-11.102-4.98-11.102-11.103s4.98-11.104,11.102-11.104c1.434,0,2.837,0.275,4.174,0.819
	c0.319,0.131,0.681,0.115,0.987-0.046c0.306-0.16,0.526-0.446,0.602-0.782c0.632-2.802,2.266-5.132,4.473-6.668
	c0.787-0.547,1.646-0.995,2.561-1.324c1.185-0.426,2.461-0.658,3.787-0.658c2.591,0,5.115,0.916,7.106,2.575
	c0.396,0.332,0.964,0.364,1.397,0.08c2.646-1.737,5.714-2.655,8.873-2.655c4.363,0,8.322,1.742,11.237,4.558
	c0.717,0.69,1.366,1.448,1.946,2.262C81.556,48.909,82.682,52.144,82.682,55.642z M66.48,37.091c-3.335,0-6.582,0.893-9.443,2.59
	c-2.295-1.675-5.08-2.59-7.933-2.59c-1.559,0-3.057,0.268-4.456,0.754c-0.026-0.24-0.042-0.482-0.042-0.729
	c0-3.684,2.996-6.68,6.68-6.68c0.861,0,1.706,0.166,2.51,0.492c0.174,0.071,0.357,0.107,0.544,0.107
	c0.232,0,0.463-0.057,0.667-0.164c0.376-0.196,0.646-0.547,0.741-0.961c0.691-3.064,3.368-5.205,6.509-5.205
	c1.558,0,3.077,0.551,4.274,1.549c0.259,0.217,0.588,0.336,0.926,0.336c0.281,0,0.554-0.081,0.792-0.236
	c1.642-1.078,3.546-1.648,5.505-1.648c5.543,0,10.054,4.511,10.054,10.054c0,3.27-1.576,6.173-4,8.009
	C76.432,39.274,71.71,37.091,66.48,37.091z"/>
</svg>
