<?xml version="1.0" encoding="utf-8"?>
<!-- Generator: Adobe Illustrator 16.0.0, SVG Export Plug-In . SVG Version: 6.00 Build 0)  -->
<!DOCTYPE svg PUBLIC "-//W3C//DTD SVG 1.1//EN" "http://www.w3.org/Graphics/SVG/1.1/DTD/svg11.dtd">
<svg version="1.1" id="Layer_1" xmlns="http://www.w3.org/2000/svg" xmlns:xlink="http://www.w3.org/1999/xlink" x="0px" y="0px"
	 width="100px" height="100px" viewBox="0 0 100 100" enable-background="new 0 0 100 100" xml:space="preserve">
<g>
	<path d="M52.706,80.559c0,1.865-1.512,3.377-3.377,3.377s-3.378-1.512-3.378-3.377s3.378-6.901,3.378-6.901
		S52.706,78.693,52.706,80.559z"/>
	<g>
		<path d="M49.526,71.369c-5.649,0-10.625-3.512-12.576-8.705c-1.831,0.895-3.838,1.363-5.883,1.363
			c-7.418,0-13.452-6.034-13.452-13.452c0-7.417,6.034-13.452,13.452-13.452c1.3,0,2.58,0.187,3.819,0.558
			c1.802-5.487,6.878-9.217,12.763-9.217c2.854,0,5.639,0.914,7.934,2.591c2.861-1.698,6.107-2.591,9.443-2.591
			c10.229,0,18.551,8.321,18.551,18.551c0,10.23-8.322,18.552-18.551,18.552c-1.365,0-2.747-0.159-4.119-0.476
			C58.45,68.986,54.171,71.369,49.526,71.369z M37.639,59.76c0.146,0,0.294,0.027,0.435,0.082c0.35,0.141,0.611,0.438,0.704,0.805
			c1.248,4.931,5.668,8.373,10.749,8.373c4.089,0,7.836-2.239,9.779-5.844c0.261-0.483,0.82-0.722,1.352-0.573
			c1.454,0.408,2.924,0.614,4.369,0.614c8.934,0,16.201-7.269,16.201-16.202c0-8.933-7.268-16.202-16.201-16.202
			c-3.158,0-6.227,0.918-8.873,2.655c-0.434,0.285-1,0.252-1.397-0.079c-1.991-1.661-4.515-2.576-7.106-2.576
			c-5.221,0-9.67,3.557-10.82,8.65c-0.076,0.336-0.296,0.622-0.602,0.782c-0.307,0.16-0.668,0.177-0.986,0.046
			c-1.337-0.542-2.741-0.818-4.174-0.818c-6.122,0-11.103,4.98-11.103,11.103s4.98,11.103,11.103,11.103
			c2.101,0,4.154-0.599,5.941-1.734C37.199,59.821,37.419,59.76,37.639,59.76z"/>
	</g>
</g>
</svg>
