<?xml version="1.0" encoding="utf-8"?>
<!-- Generator: Adobe Illustrator 16.0.0, SVG Export Plug-In . SVG Version: 6.00 Build 0)  -->
<!DOCTYPE svg PUBLIC "-//W3C//DTD SVG 1.1//EN" "http://www.w3.org/Graphics/SVG/1.1/DTD/svg11.dtd">
<svg version="1.1" id="Layer_1" xmlns="http://www.w3.org/2000/svg" xmlns:xlink="http://www.w3.org/1999/xlink" x="0px" y="0px"
	 width="100px" height="100px" viewBox="0 0 100 100" enable-background="new 0 0 100 100" xml:space="preserve">
<path d="M65.424,25.694c-3.335,0-6.582,0.894-9.443,2.592c-2.295-1.676-5.08-2.592-7.934-2.592c-5.885,0-10.961,3.73-12.763,9.217
	c-1.24-0.37-2.52-0.557-3.82-0.557c-7.417,0-13.452,6.034-13.452,13.452c0,4.665,2.389,8.78,6.005,11.194
	c2.134,1.424,4.694,2.258,7.446,2.258c2.045,0,4.052-0.469,5.884-1.364c0.106,0.283,0.226,0.559,0.349,0.832
	c1.478,3.252,4.177,5.747,7.456,6.993c0.199,0.075,0.407,0.135,0.61,0.202l-3.433,5.86l3.818,2.644l-3.818,10.279l10.866-9.618
	l-5.433-3.305l5.433-5.614l-0.002-0.007c2.556-0.643,4.866-2.01,6.646-3.96c0.533-0.583,1.035-1.199,1.464-1.879
	c0.321,0.073,0.644,0.11,0.965,0.167c1.053,0.185,2.108,0.308,3.154,0.308c10.229,0,18.551-8.321,18.551-18.55
	C83.975,34.017,75.653,25.694,65.424,25.694z M76.122,56.382c-2.857,2.521-6.597,4.065-10.698,4.065
	c-0.116,0-0.233-0.009-0.35-0.012c-0.242-0.005-0.484-0.009-0.727-0.026c-0.931-0.065-1.867-0.224-2.799-0.455
	c-0.165-0.04-0.329-0.074-0.493-0.12c-0.531-0.148-1.09,0.091-1.352,0.573c-0.379,0.703-0.845,1.337-1.351,1.931
	c-2.086,2.444-5.137,3.913-8.428,3.913c-4.971,0-9.301-3.301-10.656-8.061c-0.03-0.105-0.066-0.207-0.094-0.313
	c-0.092-0.365-0.354-0.665-0.704-0.804c-0.14-0.056-0.288-0.084-0.434-0.084c-0.221,0-0.439,0.063-0.63,0.184
	c-1.787,1.137-3.84,1.736-5.941,1.736c-2.197,0-4.24-0.649-5.965-1.754c-2.425-1.554-4.208-4.018-4.859-6.913
	c-0.177-0.785-0.277-1.599-0.277-2.436c0-6.123,4.98-11.103,11.102-11.103c1.433,0,2.837,0.275,4.174,0.818
	c0.319,0.13,0.68,0.114,0.987-0.047c0.306-0.159,0.526-0.445,0.602-0.782c1.149-5.093,5.599-8.65,10.82-8.65
	c2.592,0,5.116,0.916,7.106,2.576c0.397,0.331,0.964,0.363,1.397,0.08c2.646-1.737,5.714-2.656,8.873-2.656
	c8.934,0,16.202,7.269,16.202,16.204C81.625,49.079,79.488,53.41,76.122,56.382z"/>
</svg>
