<?xml version="1.0" encoding="utf-8"?>
<!-- Generator: Adobe Illustrator 16.0.0, SVG Export Plug-In . SVG Version: 6.00 Build 0)  -->
<!DOCTYPE svg PUBLIC "-//W3C//DTD SVG 1.1//EN" "http://www.w3.org/Graphics/SVG/1.1/DTD/svg11.dtd">
<svg version="1.1" id="Layer_1" xmlns="http://www.w3.org/2000/svg" xmlns:xlink="http://www.w3.org/1999/xlink" x="0px" y="0px"
	 width="100px" height="100px" viewBox="0 0 100 100" enable-background="new 0 0 100 100" xml:space="preserve">
<g>
	<path d="M58.807,76.026l-1.645-1.306c0.354-0.767,0.557-1.615,0.557-2.513c0-0.869-0.189-1.69-0.521-2.438l1.68-1.398
		c0.696-0.578,0.791-1.613,0.212-2.309c-0.58-0.694-1.613-0.791-2.309-0.211l-1.681,1.397c-0.529-0.362-1.12-0.639-1.752-0.819
		v-2.197c0-0.906-0.733-1.641-1.639-1.641s-1.639,0.734-1.639,1.641v2.197c-0.604,0.173-1.17,0.433-1.681,0.772l-1.74-1.38
		c-0.709-0.563-1.74-0.444-2.303,0.264c-0.562,0.71-0.444,1.741,0.265,2.304l1.645,1.306c-0.354,0.765-0.558,1.615-0.558,2.512
		c0,0.705,0.128,1.378,0.351,2.006l-1.744,1.452c-0.696,0.577-0.791,1.61-0.212,2.306c0.325,0.392,0.791,0.592,1.262,0.592
		c0.369,0,0.741-0.125,1.047-0.379l1.551-1.29c0.617,0.495,1.334,0.868,2.116,1.091v2.199c0,0.905,0.733,1.64,1.639,1.64
		s1.639-0.734,1.639-1.64v-2.199c0.604-0.171,1.171-0.431,1.681-0.772l1.74,1.382c0.302,0.238,0.661,0.354,1.018,0.354
		c0.484,0,0.962-0.212,1.286-0.619C59.635,77.621,59.516,76.59,58.807,76.026z M49.611,73.935c-0.059-0.127-0.129-0.251-0.223-0.365
		c-0.021-0.024-0.047-0.043-0.068-0.066c-0.21-0.387-0.341-0.824-0.341-1.295c0-0.618,0.214-1.184,0.563-1.643
		c0.07-0.062,0.14-0.124,0.199-0.198c0.031-0.039,0.052-0.081,0.079-0.123c0.492-0.473,1.157-0.768,1.891-0.768
		c1.507,0,2.732,1.226,2.732,2.731c0,0.602-0.201,1.154-0.532,1.605c-0.083,0.07-0.16,0.147-0.23,0.237
		c-0.03,0.038-0.051,0.08-0.077,0.122c-0.492,0.473-1.158,0.769-1.893,0.769C50.862,74.941,50.112,74.544,49.611,73.935z"/>
	<path d="M76.244,71.188l-0.999-0.794c0.215-0.466,0.338-0.98,0.338-1.525c0-0.528-0.115-1.028-0.317-1.48l1.02-0.849
		c0.423-0.353,0.48-0.979,0.129-1.402c-0.352-0.422-0.979-0.48-1.402-0.128l-1.021,0.849c-0.32-0.22-0.68-0.388-1.063-0.498v-1.335
		c0-0.55-0.446-0.996-0.995-0.996s-0.995,0.446-0.995,0.996v1.335c-0.367,0.104-0.71,0.263-1.021,0.468l-1.056-0.837
		c-0.431-0.342-1.057-0.269-1.398,0.16c-0.341,0.432-0.27,1.057,0.161,1.4l1,0.791c-0.216,0.465-0.338,0.979-0.338,1.526
		c0,0.427,0.077,0.836,0.212,1.218l-1.059,0.881c-0.422,0.352-0.48,0.978-0.128,1.399c0.197,0.238,0.48,0.36,0.766,0.36
		c0.224,0,0.45-0.075,0.636-0.231l0.942-0.782c0.375,0.301,0.81,0.527,1.284,0.663v1.335c0,0.55,0.446,0.996,0.995,0.996
		s0.995-0.446,0.995-0.996v-1.335c0.367-0.105,0.711-0.263,1.021-0.468l1.057,0.837c0.183,0.145,0.401,0.216,0.618,0.216
		c0.294,0,0.584-0.129,0.781-0.376C76.746,72.153,76.674,71.527,76.244,71.188z M70.66,69.916c-0.036-0.078-0.078-0.153-0.135-0.223
		c-0.013-0.015-0.029-0.024-0.042-0.041c-0.127-0.234-0.207-0.499-0.207-0.784c0-0.377,0.13-0.72,0.341-0.998
		c0.042-0.037,0.085-0.074,0.121-0.12c0.019-0.024,0.031-0.05,0.047-0.074c0.299-0.288,0.703-0.467,1.148-0.467
		c0.915,0,1.659,0.743,1.659,1.659c0,0.364-0.122,0.699-0.323,0.975c-0.05,0.041-0.098,0.09-0.14,0.143
		c-0.018,0.023-0.031,0.05-0.047,0.074c-0.299,0.288-0.703,0.467-1.149,0.467C71.419,70.526,70.964,70.286,70.66,69.916z"/>
	<path d="M37.624,67.911l-0.999-0.793c0.215-0.465,0.338-0.98,0.338-1.525c0-0.528-0.115-1.027-0.317-1.481l1.02-0.849
		c0.423-0.352,0.481-0.979,0.129-1.402c-0.352-0.422-0.979-0.479-1.402-0.128l-1.021,0.85c-0.32-0.222-0.68-0.389-1.063-0.497V60.75
		c0-0.551-0.445-0.996-0.995-0.996c-0.549,0-0.995,0.445-0.995,0.996v1.335c-0.367,0.104-0.71,0.262-1.021,0.469l-1.056-0.839
		c-0.431-0.341-1.056-0.269-1.398,0.161c-0.341,0.43-0.27,1.056,0.161,1.398l1,0.792c-0.216,0.465-0.338,0.981-0.338,1.526
		c0,0.428,0.077,0.836,0.213,1.218l-1.059,0.88c-0.422,0.352-0.48,0.98-0.128,1.402c0.197,0.236,0.48,0.357,0.766,0.357
		c0.224,0,0.45-0.074,0.636-0.229l0.942-0.784c0.375,0.303,0.81,0.528,1.284,0.663v1.335c0,0.551,0.446,0.997,0.995,0.997
		c0.55,0,0.995-0.446,0.995-0.997V69.1c0.367-0.104,0.711-0.262,1.021-0.468l1.057,0.838c0.183,0.146,0.401,0.215,0.618,0.215
		c0.294,0,0.584-0.129,0.781-0.376C38.126,68.879,38.055,68.253,37.624,67.911z M32.04,66.64c-0.036-0.076-0.078-0.151-0.135-0.22
		c-0.013-0.017-0.029-0.028-0.042-0.042c-0.127-0.234-0.207-0.5-0.207-0.785c0-0.377,0.13-0.72,0.341-0.997
		c0.042-0.039,0.085-0.076,0.121-0.122c0.019-0.022,0.032-0.049,0.047-0.073c0.299-0.288,0.703-0.467,1.148-0.467
		c0.915,0,1.659,0.744,1.659,1.659c0,0.365-0.123,0.7-0.323,0.974c-0.05,0.042-0.098,0.091-0.14,0.145
		c-0.019,0.023-0.031,0.048-0.047,0.073c-0.299,0.288-0.703,0.469-1.149,0.469C32.799,67.253,32.345,67.011,32.04,66.64z"/>
	<g>
		<path d="M52.472,62.896c-5.649,0-10.625-3.513-12.576-8.706c-1.832,0.896-3.839,1.364-5.884,1.364
			c-7.417,0-13.452-6.035-13.452-13.452c0-7.418,6.034-13.452,13.452-13.452c1.3,0,2.58,0.187,3.82,0.556
			c1.802-5.487,6.878-9.215,12.763-9.215c2.854,0,5.639,0.914,7.934,2.59c2.861-1.697,6.108-2.59,9.443-2.59
			c10.229,0,18.551,8.321,18.551,18.55c0,10.229-8.322,18.553-18.551,18.553c-1.365,0-2.747-0.16-4.119-0.477
			C61.396,60.512,57.116,62.896,52.472,62.896z M40.584,51.286c0.146,0,0.294,0.027,0.434,0.082c0.35,0.139,0.612,0.438,0.705,0.803
			c1.248,4.931,5.668,8.375,10.749,8.375c4.089,0,7.835-2.239,9.779-5.844c0.261-0.483,0.821-0.723,1.352-0.574
			c1.455,0.408,2.925,0.615,4.369,0.615c8.934,0,16.202-7.269,16.202-16.203c0-8.934-7.268-16.201-16.202-16.201
			c-3.158,0-6.227,0.918-8.873,2.655c-0.433,0.283-1,0.251-1.397-0.08c-1.991-1.66-4.515-2.575-7.106-2.575
			c-5.221,0-9.67,3.557-10.82,8.649c-0.076,0.336-0.296,0.623-0.602,0.782c-0.307,0.16-0.668,0.178-0.987,0.047
			c-1.336-0.544-2.741-0.819-4.174-0.819c-6.122,0-11.102,4.981-11.102,11.104c0,6.121,4.98,11.103,11.102,11.103
			c2.101,0,4.155-0.601,5.941-1.736C40.145,51.348,40.364,51.286,40.584,51.286z"/>
	</g>
</g>
</svg>
