<?xml version="1.0" standalone="no"?>
<!DOCTYPE svg PUBLIC "-//W3C//DTD SVG 1.1//EN" "http://www.w3.org/Graphics/SVG/1.1/DTD/svg11.dtd" >
<svg xmlns="http://www.w3.org/2000/svg">
<metadata></metadata>
<defs>
<font id="tiennebold" horiz-adv-x="1291" >
<font-face units-per-em="2048" ascent="1638" descent="-410" />
<missing-glyph horiz-adv-x="532" />
<glyph horiz-adv-x="2048" />
<glyph horiz-adv-x="2048" />
<glyph unicode="&#xd;" horiz-adv-x="2048" />
<glyph horiz-adv-x="0" />
<glyph unicode="&#x9;" horiz-adv-x="0" />
<glyph unicode=" "  horiz-adv-x="532" />
<glyph unicode="&#x09;" horiz-adv-x="532" />
<glyph unicode="&#xa0;" horiz-adv-x="532" />
<glyph unicode="!" horiz-adv-x="786" d="M216 1370q0 2 0.5 5t0.5 4q62 56 181 56q82 0 121.5 -21.5t39.5 -85.5q0 -36 -2 -59l-39 -452q-28 -312 -27 -382q-37 -17 -78 -17q-69 0 -92 17t-27 72q-42 472 -52 600q-5 54 -11.5 115t-10.5 98t-4 50zM230 141q0 69 46.5 116t122.5 47t122.5 -47.5t46.5 -115.5 q0 -71 -45.5 -117t-123.5 -46t-123.5 46t-45.5 117z" />
<glyph unicode="&#x22;" horiz-adv-x="922" d="M127 1412q51 42 144 42q79 0 99 -51q20 -32 20 -66q-29 -274 -40 -398q-44 -23 -90 -23q-87 0 -98 101q-29 267 -35 395zM530 1412q54 42 145 42q78 0 98 -51q21 -30 21 -66q-29 -274 -40 -398q-45 -20 -86 -20q-31 0 -55 16q-25 4 -34 24.5t-13 57.5q-32 318 -36 395z " />
<glyph unicode="#" horiz-adv-x="1216" d="M70 442v56q0 52 14 69.5t64 17.5h152l53 256h-209v76q0 43 16.5 55.5t61.5 12.5h161l76 363h58q42 0 62.5 -8.5t24.5 -33.5q-2 -10 -6 -33t-6 -35l-53 -253h252l77 363h56q45 0 65 -7.5t20 -33.5q-7 -54 -10 -72l-54 -250h200v-55q0 -53 -12.5 -71t-65.5 -18h-150 l-55 -256h211v-75q0 -33 -11 -48t-39 -20h-189l-76 -369h-57q-41 0 -61 9.5t-24 35.5q2 15 25 130l39 194h-255l-76 -369h-67q-38 0 -56.5 6.5t-18.5 27.5q0 11 20 120l46 215h-203zM454 585h255l54 256h-255z" />
<glyph unicode="$" horiz-adv-x="1338" d="M118 152q0 44 8 90l73 177l198 -79q40 -100 92 -150.5t126 -64.5v491q-26 13 -70 33.5t-69.5 32.5t-64.5 32t-63 34.5t-55 36.5t-50 41.5t-39.5 45.5t-31.5 52t-18.5 58.5t-7.5 68.5q0 162 125 262t344 121v102l35 30q44 0 63.5 -13t23.5 -47v-65q149 0 262 -29.5 t151 -84.5q0 -24 -3 -48q1 0 1 -5q0 -10 -4 -26l-51 -179l-193 47q-66 134 -163 161v-459q64 -27 101.5 -43.5t94.5 -45t91 -51.5t74.5 -58t62.5 -69t37 -79t15 -95q0 -172 -130.5 -281t-345.5 -123v-146l-35 -40q-57 0 -72 17t-15 72v96q-252 9 -441 128q-45 27 -56 52z M456 1089q0 -76 40 -128t119 -90v421q-68 -12 -107 -57.5t-48 -114.5q-4 -10 -4 -31zM737 125q71 16 113.5 72.5t42.5 135.5q0 72 -39 124.5t-117 98.5v-431z" />
<glyph unicode="%" horiz-adv-x="1663" d="M81 1059q0 182 85.5 279t232.5 97q145 0 230.5 -98.5t85.5 -279.5q0 -174 -83.5 -275.5t-227.5 -101.5q-151 0 -237 100.5t-86 278.5zM254 1057q0 -137 33.5 -206t111.5 -69q75 0 108 69.5t33 205.5q0 144 -34.5 210t-106.5 66q-78 0 -111.5 -69t-33.5 -207zM332 32 q125 213 267.5 447t324 527.5t272.5 443.5q4 -2 21 -8t23 -9t17.5 -8.5t17.5 -10.5t10 -11q32 -20 47 -30l-860 -1407l-67 27q-35 14 -73 39zM944 353q0 180 84.5 279.5t235.5 99.5q150 0 234 -100t84 -279q0 -176 -86.5 -277t-231.5 -101q-148 0 -234 101.5t-86 276.5z M1122 353q0 -138 33 -206t113 -68q139 0 139 274q0 139 -33 208t-110 69q-76 0 -109 -69t-33 -208z" />
<glyph unicode="&#x26;" horiz-adv-x="1515" d="M85 375q0 129 77 226.5t226 140.5v3q-127 35 -195.5 114t-68.5 197q0 170 136.5 264.5t399.5 94.5q192 0 442 -76l-12 -316h-185q-33 133 -89.5 195t-154.5 62q-112 0 -175.5 -64t-63.5 -158q0 -113 63 -179.5t189 -66.5h765v-304q-16 0 -47.5 0.5t-46.5 0.5 q-16 96 -55.5 127.5t-129.5 31.5q13 -203 13 -251q0 -447 -525 -447q-563 0 -563 405zM399 371q0 -254 268 -254q121 0 181 80.5t60 225.5q1 40 -4 149l-4 96h-254q-113 0 -180 -78t-67 -219z" />
<glyph unicode="'" horiz-adv-x="519" d="M127 1404q16 24 55 37t89 13q79 0 99 -51q20 -30 20 -59v-7q-39 -382 -40 -398q-48 -23 -90 -23q-48 0 -69.5 26.5t-28.5 74.5q-30 281 -35 387z" />
<glyph unicode="(" horiz-adv-x="675" d="M117 656q0 225 72.5 441t198.5 378q60 36 112 36q35 0 49 -7q0 -3 -1 -4l61 -26q-204 -334 -204 -818q0 -486 204 -822q-50 -26 -81 -26q-20 0 -38 9q10 2 13 2q-7 -5 -41 -5q-108 53 -189 196t-118.5 311t-37.5 335z" />
<glyph unicode=")" horiz-adv-x="675" d="M66 -166q98 163 150 376.5t52 447.5q0 487 -202 816l61 27q19 8 67 8q28 0 46.5 -9.5t41.5 -32.5q128 -147 197 -344h-1q80 -225 80 -461q0 -258 -87 -495t-214 -345q-36 -23 -95 -23q-24 0 -32 4q2 -1 4 -1t3 1z" />
<glyph unicode="*" horiz-adv-x="918" d="M78 1014q40 14 79 22l212 44l-253 179q10 10 30 30.5t32.5 32.5t30 26.5t32.5 23.5q33 -37 52 -63l136 -170l30 301l173 -41q-8 -23 -51.5 -126t-60.5 -147l270 126l32 -92q7 -30 12 -56q-27 -13 -59 -19l-227 -44l247 -203l-80 -70q-18 -16 -52 -36q-20 20 -52 67 l-128 183l-27 -317q-43 7 -79 20t-60.5 25t-32.5 14q65 141 109 270l-268 -135q-5 15 -16.5 48t-19 58.5t-11.5 48.5z" />
<glyph unicode="+" horiz-adv-x="1269" d="M133 509v79q0 54 27 70t87 16h60h230v418h47q69 0 101.5 -12t44.5 -49v-357h406v-78q-3 -54 -25.5 -70.5t-85.5 -16.5h-295v-420h-70q-75 0 -99 17t-24 81v322h-404z" />
<glyph unicode="," horiz-adv-x="578" d="M76 -275q102 118 133 289q-50 7 -81.5 41.5t-31.5 84.5q3 80 53 120.5t120 40.5q91 0 135.5 -44t44.5 -124q0 -142 -76 -259t-222 -219q-25 10 -40.5 26t-34.5 44z" />
<glyph unicode="-" horiz-adv-x="765" d="M51 496v80q0 45 21 59t73 14h569v-63q0 -81 -61 -90h-602z" />
<glyph unicode="." horiz-adv-x="642" d="M154 135q0 70 46 117t121 47q74 0 120 -48t46 -116q0 -71 -44 -116.5t-121 -46.5q-78 0 -123 46t-45 117z" />
<glyph unicode="/" horiz-adv-x="878" d="M0 -77l43 101q49 110 274 619.5t347 782.5q43 39 119 39q42 0 95 -12q-28 -68 -43 -103l-584 -1319q-27 -62 -59 -115q-19 -8 -49 -8h-60q-55 0 -83 15z" />
<glyph unicode="0" horiz-adv-x="1315" d="M81 707q0 347 149 538t427 191q280 0 428.5 -191.5t148.5 -537.5t-151.5 -541.5t-425.5 -195.5q-277 0 -426.5 196t-149.5 541zM401 707q0 -296 62.5 -439t193.5 -143q133 0 195 146t62 436t-61 432.5t-196 142.5q-131 0 -193.5 -138.5t-62.5 -436.5z" />
<glyph unicode="1" horiz-adv-x="993" d="M121 1350q280 79 420 79q54 0 82.5 -14t33.5 -51v-1109q0 -66 9 -108q32 -5 84 -5h107v-157q-177 15 -348 15q-144 0 -366 -15v157h105q59 0 84 5q11 44 11 107v883q0 73 -2 106q-33 15 -77 15q-14 0 -30 -3l-104 -9z" />
<glyph unicode="2" horiz-adv-x="1276" d="M91 85q0 23 9 73q342 327 541 534q89 98 128 183t39 185q0 113 -48.5 172.5t-142.5 59.5q-98 0 -182.5 -77.5t-112.5 -206.5l-212 151q12 125 157.5 201t348.5 76q231 0 362 -103t131 -296q0 -112 -62 -223t-213 -258.5t-421 -356.5q307 0 406 -1q30 12 53.5 24.5 t54.5 35.5t58.5 60.5t49.5 87.5q23 -2 62.5 -7.5t55.5 -6.5q-2 -242 -13 -372q-93 -20 -372 -20h-565q-58 0 -82.5 18.5t-29.5 66.5z" />
<glyph unicode="3" horiz-adv-x="1223" d="M93 1169q48 131 174.5 198.5t306.5 67.5q99 0 186.5 -22t156.5 -65t109 -112.5t40 -156.5q0 -119 -89.5 -204.5t-246.5 -120.5q185 -24 285.5 -121t100.5 -258q0 -189 -144 -299.5t-384 -110.5q-146 0 -275.5 44.5t-203.5 115.5q7 176 20 285l155 -19q14 -143 90.5 -209 t185.5 -66q119 0 187 74.5t68 194.5q0 271 -356 271h-94q2 101 10 138l84 5q57 3 116.5 24t111.5 56t85.5 89.5t33.5 117.5q0 93 -64.5 144.5t-159.5 51.5q-102 0 -187.5 -66.5t-110.5 -183.5z" />
<glyph unicode="4" horiz-adv-x="1244" d="M31 532q13 25 56 86q443 638 559 795h130h51q63 0 89 -17t26 -70v-810h268v-70q0 -52 -29 -65t-107 -13h-132v-114q0 -72 9 -108q34 -5 84 -5h107v-156q-170 15 -334 15q-134 0 -364 -15v156h105q59 0 84 5q11 38 11 107v115h-549q-64 88 -64 164zM219 516h425v547v69 l-394 -566z" />
<glyph unicode="5" horiz-adv-x="1236" d="M129 418l171 -16q16 -98 42 -228q110 -49 206 -49q133 0 198 86t65 227q0 292 -258 292q-134 0 -246 -82q-54 15 -144 32q1 112 3 336.5t3 337.5q24 28 68 41.5t79 15.5t103 2q24 0 106.5 -0.5t108.5 0t91 2t102.5 4.5t92.5 9t107 14l8 -149q-30 -39 -87.5 -54.5 t-162.5 -15.5q-159 0 -348 30l-4 -405q119 50 240 50q194 0 318.5 -123.5t124.5 -316.5q0 -233 -148.5 -360.5t-387.5 -127.5q-252 0 -446 114z" />
<glyph unicode="6" horiz-adv-x="1257" d="M109 641q0 795 610 795q117 0 219 -20.5t154 -56.5l-7 -341h-174l-32 228q-104 36 -175 36q-87 0 -148 -53t-90.5 -140t-34.5 -203q-6 -61 -9 -130q156 121 329 121q190 0 306 -120.5t116 -322.5q0 -205 -146.5 -334.5t-384.5 -129.5q-268 0 -400.5 165.5t-132.5 505.5z M427 497q0 -175 58.5 -278t166.5 -103q97 0 155 82.5t58 232.5q0 133 -44.5 209.5t-134.5 79.5q-28 0 -84 -33q-61 -13 -117 -74t-58 -116z" />
<glyph unicode="7" horiz-adv-x="1236" d="M101 1365q112 32 225 40t312 8h488q26 -38 26 -164l-451 -1062q-49 -107 -99 -152.5t-140 -45.5q-112 0 -146 50q9 25 19 46l562 1168h-404q-97 0 -160 -15q-6 -44 -10 -88l-10 -149h-162z" />
<glyph unicode="8" horiz-adv-x="1207" d="M78 328q0 258 279 394q-129 65 -193.5 151t-64.5 208q0 107 64.5 188t176.5 124t252 43q136 0 245.5 -40.5t176.5 -123.5t67 -194q0 -70 -33.5 -133.5t-84 -111t-132.5 -106.5q128 -54 212.5 -144t84.5 -213q0 -102 -41.5 -180t-115 -125.5t-169 -71t-210.5 -23.5 q-146 0 -261.5 41t-184 123t-68.5 194zM373 359q0 -110 59.5 -172t159.5 -62q109 0 168 61.5t59 157.5q0 99 -61.5 171t-174.5 111q-7 2 -22 8t-23 9q-165 -93 -165 -284zM398 1069q0 -93 60 -160.5t170 -105.5q160 64 160 266q0 98 -52.5 156t-143.5 58t-142.5 -57.5 t-51.5 -156.5z" />
<glyph unicode="9" horiz-adv-x="1256" d="M89 977q0 204 145 331.5t381 127.5q268 0 400 -161.5t132 -493.5q0 -811 -585 -811q-125 0 -234.5 24.5t-160.5 68.5v336h177l38 -239q97 -35 171 -35q127 0 196 110t77 289q2 17 9 126q-163 -117 -328 -117q-189 0 -303.5 121t-114.5 323zM397 980q0 -131 41.5 -209.5 t126.5 -78.5q55 0 124 21.5t90 61.5q47 52 51 119q0 388 -226 388q-94 0 -150.5 -79.5t-56.5 -222.5z" />
<glyph unicode=":" horiz-adv-x="648" d="M155 132q0 78 46.5 122t121.5 44q72 0 119.5 -48.5t47.5 -116.5q0 -76 -46.5 -118.5t-116.5 -42.5q-82 0 -127 44.5t-45 115.5zM157 870q0 72 47.5 116.5t123.5 44.5q72 0 119 -45.5t47 -111.5q0 -79 -46 -123.5t-118 -44.5q-82 0 -127.5 44.5t-45.5 119.5z" />
<glyph unicode=";" horiz-adv-x="575" d="M76 -327q7 17 21 53q62 76 102 201q0 5 -1 9q8 28 11 42q-37 7 -61.5 31t-28.5 62q-19 22 -19 55q0 60 51 99.5t119 39.5q178 0 178 -177q0 -134 -77 -254t-215 -214q-10 7 -38.5 23t-41.5 30zM105 870q0 68 41 111t110 48q10 2 19 2q72 0 119.5 -45.5t47.5 -111.5 q0 -79 -46 -123.5t-119 -44.5q-82 0 -127 44.5t-45 119.5z" />
<glyph unicode="&#x3c;" horiz-adv-x="1444" d="M133 503v59q0 10 41 28q-4 -1 -14.5 -5t-16.5 -6v13q0 24 17 34l853 391l106 45q56 23 104 40q24 -19 37.5 -31.5t22 -27t11 -21.5t8 -29.5t9.5 -36.5l-869 -397v-2l375 -171q376 -173 493 -224q-4 -16 -9 -38t-7 -29.5t-10.5 -22t-22.5 -27t-39 -32.5q-58 20 -126 51 q-921 420 -963 439z" />
<glyph unicode="=" horiz-adv-x="1347" d="M131 317v78q0 57 24.5 71.5t105.5 14.5h955v-76q0 -34 -20 -53.5t-65 -34.5h-1000zM131 700v79q0 24 6.5 40.5t16 26t27.5 14t33.5 5.5t42.5 1h959v-78q0 -36 -21 -55.5t-63 -32.5h-1001z" />
<glyph unicode="&#x3e;" horiz-adv-x="1443" d="M133 924l11 39q26 57 68 67q32 18 92 54l1038 -474l19 -31q11 -18 11 -31v-54l-969 -442h3q-21 -10 -143 -48q-107 72 -113 96l-16 65l827 381zM1338 617l4 -7q-3 3 -4 7z" />
<glyph unicode="?" horiz-adv-x="1055" d="M101 1112v249q24 8 64 20.5t144.5 33.5t184.5 21q207 0 335 -91.5t128 -256.5q0 -34 -8.5 -66.5t-20 -59t-35.5 -58.5t-42.5 -53t-55 -54.5t-58.5 -52.5t-66 -56q-30 -25 -43 -60.5t-13 -110.5q0 -87 8 -134q-78 -9 -143 -9q-61 33 -109.5 87t-48.5 111q0 30 9 57 t30.5 55.5t35 44t46 46t40.5 38.5q75 75 110 140.5t35 143.5q0 87 -44 135.5t-112 48.5q-77 0 -199 -32q-3 -66 -4 -137h-168zM345 111q0 59 41.5 103t113.5 44q68 0 109.5 -47t41.5 -108q0 -56 -37.5 -95.5t-109.5 -39.5q-77 0 -118 42.5t-41 100.5z" />
<glyph unicode="@" horiz-adv-x="1822" d="M119 628q0 178 68 334t184 264.5t275 171t337 62.5q214 0 383.5 -87t265 -246t95.5 -364q0 -142 -55 -267t-150.5 -201t-205.5 -76q-85 0 -141.5 44.5t-81.5 118.5q-53 -73 -129 -73q-49 -90 -139 -90q-122 0 -199 82.5t-77 230.5q0 118 39.5 223.5t106 179t156 116.5 t187.5 43q102 0 152 -68l17 70q104 -11 151 -68q-23 -94 -107 -469q-13 -58 -13 -108q0 -61 23.5 -89t75.5 -28q97 0 178.5 129t81.5 305q0 120 -45 226t-125 182.5t-195.5 120.5t-250.5 44q-136 0 -257.5 -50t-213 -141t-145 -228t-53.5 -301q0 -198 89.5 -353.5 t243 -239.5t342.5 -84q266 0 504 146l45 -85q-270 -174 -564 -174q-186 0 -347 63.5t-271 171.5t-172.5 254t-62.5 308zM746 532q0 -83 37.5 -137.5t99.5 -54.5q32 0 59.5 13t49 32t41 52.5t33 63t27 77t21 79.5t16.5 85t13 80t11 77q-18 91 -111 91q-69 0 -138 -63 t-114 -170.5t-45 -224.5z" />
<glyph unicode="A" horiz-adv-x="1623" d="M4 -13l33 137l37 2q63 0 92.5 30t54.5 97q93 251 454 1166h107q50 0 93 -8q60 -30 98.5 -64t57.5 -84q81 -217 204 -548t169 -452q36 -97 52 -122q28 -6 140 -14l27 -140q-153 13 -316 13q-142 0 -306 -13l-10 133q102 2 102 29q-8 51 -37 132l-46 126h-461l-38 -121 q-28 -87 -28 -127q0 -9 7 -16t21.5 -10.5t25 -5t30.5 -3.5t24 -2l-17 -135q-86 13 -257 13q-213 0 -313 -13zM581 534h389q-31 96 -96 308.5t-93 301.5h-7z" />
<glyph unicode="B" horiz-adv-x="1484" d="M68 1250v139q317 32 720 32q561 0 561 -382q0 -106 -74.5 -192.5t-200.5 -119.5q310 -63 310 -339q0 -61 -14 -112t-37 -89t-61.5 -67.5t-77.5 -49.5t-95.5 -34.5t-105.5 -22t-118 -12t-121.5 -5.5t-127.5 -1q-100 0 -280 1.5t-261 1.5v148h80q61 0 88 4q34 17 34 117 v857q0 78 -12 126q-56 2 -90 2q-41 0 -117 -2zM609 146q97 -3 185 -3q264 0 264 238q0 153 -89.5 209t-300.5 56q-25 0 -59 -2v-498zM609 789q90 -3 93 -3q155 0 240.5 61.5t85.5 185.5q0 121 -67.5 179t-216.5 58q-70 0 -135 -5v-476z" />
<glyph unicode="C" horiz-adv-x="1446" d="M115 673q0 367 196 565t554 198q140 0 269 -33t214 -84l-23 -310h-190q-13 55 -34 101.5t-53 88.5t-80 66t-107 24q-200 0 -301.5 -152t-101.5 -422q0 -291 105 -439.5t300 -148.5q122 0 235.5 34t252.5 102l19 -167q-226 -132 -528 -132q-219 0 -381.5 79.5t-254 240.5 t-91.5 389z" />
<glyph unicode="D" horiz-adv-x="1663" d="M68 1254v138q310 29 732 29q176 0 309.5 -38t234 -121.5t152.5 -225t52 -339.5q0 -124 -24.5 -223t-67.5 -171.5t-110 -126t-144 -87t-178 -54t-202.5 -28t-227.5 -7.5q-114 0 -515 -7v146l76 1q53 0 92 8q34 20 34 119v853q0 69 -12 129q-31 5 -101 5h-100zM599 148 q13 -2 39 -2q153 0 257.5 28t175.5 93.5t103 172t32 263.5q0 296 -99.5 429t-338.5 133q-25 0 -81.5 -1.5t-87.5 -1.5v-1114z" />
<glyph unicode="E" horiz-adv-x="1409" d="M68 1253v133q251 27 596 27h603l25 -129q21 -113 30 -177l-184 -17q-16 96 -35 145q-92 24 -236 24q-71 0 -264 -4v-467h232q62 0 82 21.5t41 100.5h100q0 -174 -7 -393q-12 -1 -36 -1q-11 0 -34 0.5t-35 0.5q-21 80 -41 106.5t-59 26.5h-243v-504h371q98 0 135 24 q16 47 30 173q116 -2 194 -2l-3 -127q-7 -152 -10 -196q-169 -26 -397 -26q-109 0 -276 4t-237 4q-211 0 -336 -7v153h112q61 0 87 4q11 41 11 101v893q0 59 -12 104q-25 5 -85 5h-119z" />
<glyph unicode="F" horiz-adv-x="1329" d="M68 1253v134q76 7 141 11.5t146.5 7.5t130.5 4.5t160 2t164.5 0.5h213.5h241l21 -133q19 -128 24 -183l-183 -12q-5 51 -39 154q-74 20 -211 20q-81 0 -283 -4v-464h217q65 0 85.5 21t42.5 98h99q0 -206 -6 -393q-3 0 -10.5 -0.5t-11.5 -0.5q-5 0 -31.5 0.5t-51.5 0.5 q-21 79 -41.5 104.5t-59.5 25.5h-232v-388q0 -62 9 -109q24 -4 79 -4h97v-159q-236 13 -340 13q-116 0 -361 -13v159h103q57 0 82 4q11 38 11 107q0 148 -0.5 444.5t-0.5 444.5q0 69 -10 102q-25 5 -81 5h-114z" />
<glyph unicode="G" horiz-adv-x="1495" d="M115 673q0 379 216 571t598 192q134 0 264.5 -34.5t193.5 -80.5l-25 -316q-31 0 -92.5 0.5t-92.5 0.5q-34 145 -100.5 215t-187.5 70q-214 0 -323 -154t-109 -443q0 -253 107 -406t306 -153q138 0 230 38v221q0 76 -11 112q-43 8 -107 8h-112v123q186 20 496 20 q8 0 24.5 -0.5t25.5 -0.5l-2 -93q-2 -40 -2 -111v-334q-225 -148 -544 -148q-167 0 -304 44.5t-237.5 130.5t-156 220.5t-55.5 307.5z" />
<glyph unicode="H" horiz-adv-x="1733" d="M68 1265v135q167 19 343 19q247 0 360 -16v-138h-99q-54 0 -79 -5q-9 -39 -9 -99l1 -353h563l-1 345q-2 72 -11 107q-23 5 -78 5h-98v135q168 19 343 19q247 0 361 -16v-138h-106q-57 0 -82 -5q-10 -45 -10 -107l1 -894q0 -62 10 -109q25 -4 82 -4h104v-159 q-148 13 -306 13h-65q-173 0 -330 -13v159h96q56 0 79 4q11 33 11 107v394h-563v-392q0 -62 10 -109q25 -4 79 -4h97v-159q-143 13 -324 13q-215 0 -377 -13v159h103q57 0 82 4q11 39 11 107l-2 896q0 66 -11 107q-24 5 -82 5h-103z" />
<glyph unicode="I" horiz-adv-x="857" d="M68 -13v159h106q58 0 84 4q11 39 11 107v865q0 99 -11 138q-25 5 -83 5h-107v135q171 19 350 19q254 0 371 -16v-138h-107q-58 0 -84 -5q-10 -45 -10 -104v-897q0 -62 10 -109q26 -4 84 -4h106v-159q-148 13 -335 13q-220 0 -385 -13z" />
<glyph unicode="J" horiz-adv-x="986" d="M34 -88q-1 18 12 182l12 159l190 -3q5 -53 16.5 -140t12.5 -101q39 -13 87 -13q67 0 92 45t25 130q0 32 -5.5 110t-5.5 124v749q0 68 -11 106q-29 6 -99 6h-91v135q177 18 397 18q208 0 325 -15v-138h-93q-69 0 -98 -6q-10 -36 -10 -107v-812q0 -240 -108 -366.5 t-306 -126.5q-87 0 -187 17t-155 47z" />
<glyph unicode="K" horiz-adv-x="1644" d="M68 1265v135q171 19 350 19q254 0 371 -16v-138h-107q-58 0 -84 -5q-10 -45 -10 -107v-896q0 -63 11 -107q25 -4 84 -4h106v-159q-166 13 -354 13q-193 0 -366 -13v159h106q58 0 83 4q11 33 11 107v896q0 66 -11 107q-25 5 -83 5h-107zM617 731l26 30q6 9 19 22l325 342 q107 112 110 135q-26 5 -89 5h-74l1 135q182 19 401 19q191 0 297 -16l-46 -138h-85q-66 0 -100 -5q-46 -38 -115 -107l-255 -255q-88 -88 -97 -98l385 -497q9 -12 27.5 -36.5t27 -35t29 -32.5t48.5 -49q27 -4 83 -4h67l36 -159q-171 13 -256 13h-57q-221 0 -404 -13l-5 159 h28q51 0 69 4q-20 50 -61 107l-282 395q-6 6 -32 47z" />
<glyph unicode="L" horiz-adv-x="1286" d="M68 1265v135q171 19 350 19q255 0 373 -16v-138h-108q-58 0 -84 -5q-10 -37 -10 -104v-1010h295q104 0 156 58t89 192l157 -21l-39 -375q-201 -7 -337 -7q-64 0 -160.5 3.5t-126.5 3.5q-405 0 -523 -13l-2 159h77q58 0 84 4q10 64 10 140v866q0 63 -11 104q-25 5 -83 5 h-107z" />
<glyph unicode="M" horiz-adv-x="2201" d="M68 -15l20 161h96q68 0 99 4q21 60 28 106q11 96 86 899q1 11 1 49q0 27 -6 53q-35 8 -89 8h-119v138q140 15 339 15q153 0 243 -18q52 -133 194.5 -558.5t151.5 -448.5q228 688 348 1007q75 17 268 17q136 0 304 -14l5 -138h-75q-78 0 -117 -10q0 -3 -0.5 -8t-0.5 -7 q0 -38 5 -81q7 -95 79 -917q3 -33 19 -90q42 -6 113 -6h72l20 -161q-142 15 -321 15q-217 0 -370 -13l-1 159h70q42 0 59 7.5t24 30.5q-1 63 -23 346.5t-38 453.5q-32 -111 -149 -456t-181 -527h-275q-67 185 -340 979q-4 -39 -61 -777v-9q0 -30 9 -39q30 -9 89 -9h87 l-15 -159q-143 13 -305 13q-193 0 -343 -15z" />
<glyph unicode="N" horiz-adv-x="1708" d="M68 1265v132q203 21 357 21q103 0 179 -17q333 -508 629 -978q0 135 -7 730q0 73 -12 108q-33 5 -86 5h-118v136q118 17 317 17q215 0 324 -14v-139h-86q-59 0 -97 -5q-10 -37 -10 -107q-4 -502 -15 -1161h-129q-98 0 -168 16l-618 975q5 -243 8 -724q0 -66 10 -110 q25 -4 85 -4h111v-160q-145 14 -316 14q-196 0 -346 -14v160h112q60 0 87 4q11 36 11 107q0 150 -0.5 448.5t-0.5 447.5q0 70 -10 107q-27 5 -87 5h-124z" />
<glyph unicode="O" horiz-adv-x="1625" d="M114 702q0 348 186.5 541t512.5 193q325 0 511 -194.5t186 -539.5q0 -343 -187 -537.5t-510 -194.5q-326 0 -512.5 195.5t-186.5 536.5zM456 699q0 -281 89.5 -427.5t267.5 -146.5q172 0 263.5 144t91.5 433q0 287 -91 433.5t-264 146.5q-172 0 -264.5 -146.5 t-92.5 -436.5z" />
<glyph unicode="P" horiz-adv-x="1393" d="M69 1265v136q234 23 629 23q120 0 212 -11.5t171.5 -41t130.5 -78t80 -123.5t30 -176q0 -206 -146 -316.5t-444 -110.5q-77 0 -123 2q0 -77 -0.5 -151t-0.5 -105v-61t1.5 -43.5t3.5 -25.5t7 -33q25 -4 85 -4h110v-160q-161 14 -350 14q-217 0 -386 -14v160h112q60 0 87 4 q11 35 11 107v901q0 68 -11 104q-33 3 -86 3h-123zM608 714q6 0 19 -0.5t20 -0.5q194 0 271.5 65t77.5 212q0 148 -68.5 211.5t-223.5 63.5h-96v-551z" />
<glyph unicode="Q" horiz-adv-x="1678" d="M114 708q0 343 186 535.5t510 192.5q315 0 504 -187t190 -510q0 -172 -50 -317.5t-158.5 -256t-263.5 -154.5q72 -64 217 -64q104 0 277 48l37 -131q-232 -90 -425 -90q-257 0 -435 161q-79 31 -139 71q-215 65 -332.5 244.5t-117.5 457.5zM455 699q0 -284 90 -429.5 t265 -145.5q173 0 264.5 143t91.5 434q0 287 -92 434t-264 147q-171 0 -263 -147t-92 -436z" />
<glyph unicode="R" horiz-adv-x="1544" d="M68 1265v138q248 21 627 21q118 0 210.5 -11t175.5 -39t137.5 -73.5t86.5 -118.5t32 -170q0 -129 -81.5 -219t-229.5 -140q71 -27 123 -70.5t89.5 -109t63.5 -138.5t51 -179q14 1 75.5 1.5t86.5 0.5l-8 -173q-146 -13 -196 -13q-98 0 -160.5 36t-95.5 114 q-27 66 -59 155.5t-50 137.5t-46.5 96t-63.5 72q-32 5 -68 7t-89 2.5t-71 0.5v-334q0 -62 10 -109q26 -4 87 -4h80v-159q-137 13 -313 13q-213 0 -375 -13v159h86q65 0 94 4q11 38 11 107q0 151 -0.5 453t-0.5 452q0 69 -10 99q-22 4 -86 4h-123zM608 734q20 -1 63 -2 q178 0 258.5 63t80.5 209q0 144 -70 202.5t-237 58.5h-95v-531z" />
<glyph unicode="S" horiz-adv-x="1278" d="M80 162q4 35 15 79.5t30 106.5t25 84l224 -61q5 -27 11 -67.5t9.5 -59.5t11.5 -41t21 -36q59 -50 210 -50q93 0 153.5 62.5t60.5 154.5q0 48 -17.5 88.5t-43.5 69.5t-75.5 59t-93.5 50.5t-117 50.5q-201 83 -299 176t-98 227q0 172 155.5 276.5t431.5 104.5 q120 0 216 -29.5t202 -82.5q-1 -34 -6.5 -74t-10.5 -65.5t-15 -73t-14 -65.5l-174 -1q-6 63 -18 101.5t-43 65.5q-35 31 -101 48t-117 17q-83 0 -135 -50t-52 -138q0 -87 55 -140.5t164 -96.5q56 -23 87.5 -36t84 -36t83 -39.5t73.5 -42.5t68 -48.5t54 -52.5t44 -60.5 t25.5 -67.5t10.5 -77q0 -195 -151 -308.5t-392 -113.5q-168 0 -335.5 52.5t-216.5 139.5z" />
<glyph unicode="T" horiz-adv-x="1416" d="M31 1397q37 16 268 16q37 0 202.5 -3.5t215.5 -3.5q68 0 224 3.5t187 3.5q218 0 257 -16q0 -45 -4.5 -182t-4.5 -174h-162q0 85 -27 220q-45 -1 -139 -1h-176v-1001q0 -71 11 -109q30 -4 98 -4h92v-159q-148 13 -337 13q-220 0 -385 -13v159h91q69 0 99 4q11 38 11 107 q0 168 -0.5 501.5t-0.5 501.5h-314q-26 -105 -27 -219h-169q0 37 -5 174.5t-5 181.5z" />
<glyph unicode="U" horiz-adv-x="1659" d="M32 1265v141q172 13 326 13q288 0 383 -14v-140h-86q-63 0 -91 -5q-10 -44 -10 -107q0 -107 -0.5 -323t-0.5 -323q0 -184 78.5 -283.5t218.5 -99.5q159 0 230.5 116t71.5 337v576q0 69 -11 107q-27 5 -89 5h-82v141q146 13 328 13q239 0 329 -14v-140h-93q-69 0 -98 -5 q-11 -42 -11 -107v-638q0 -136 -46.5 -241.5t-129 -171t-191 -99t-237.5 -33.5q-588 0 -588 612v571q0 69 -11 107q-30 5 -99 5h-91z" />
<glyph unicode="V" horiz-adv-x="1687" d="M0 1405q141 14 408 14q153 0 271 -14l29 -140h-68q-59 0 -83 -5q4 -21 35 -104q198 -528 296 -791l17 -36l281 824q17 49 24 107q-24 5 -83 5h-67l25 140q108 13 340 13q161 0 262 -13l-24 -140h-55q-76 0 -112 -5q-22 -37 -46 -107q-232 -682 -448 -1158h-146 q-74 0 -113 13t-54 51l-429 1094q-26 65 -57 107q-28 5 -84 5h-96z" />
<glyph unicode="W" horiz-adv-x="2429" d="M9 1405q135 14 345 14q211 0 335 -14l28 -140h-68q-58 0 -82 -5q8 -36 35 -104l258 -827l32 109q32 109 88 304.5t101 364.5q17 64 27.5 167t12.5 116h162q32 0 54.5 -10.5t37 -32.5t23 -42.5t19.5 -54.5q2 -7 3 -10l287 -914q245 870 245 871q8 16 8 30q0 38 -90 38h-72 l19 140q104 13 276 13q224 0 327 -13l-19 -140h-70q-66 0 -97 -5q-21 -46 -150 -488q-142 -453 -275 -777h-177q-76 0 -105 15.5t-45 76.5l-251 770q-136 -512 -268 -862h-214q-46 0 -71.5 14t-34.5 50l-374 1094q-24 63 -57 107q-32 5 -98 5h-81z" />
<glyph unicode="X" horiz-adv-x="1673" d="M18 -13q8 106 11 159h73q53 0 79 4q16 8 35 26.5t32 33.5t43 51l355 431l-349 469q-49 64 -77 84t-83 20h-75l-35 140q156 14 318 14h78q200 0 312 -14l30 -140h-74q-46 0 -60 -13q3 -25 44 -83l217 -318l189 274q61 83 73 121q-15 19 -64 19h-87l39 140q129 14 338 14 q165 0 270 -14l-34 -140h-85q-52 0 -79 -5q-49 -33 -110 -113q-83 -109 -195 -251.5t-137 -174.5l355 -441q10 -12 27.5 -35t28 -35.5t25 -27.5t28.5 -25q28 -11 73 -11h52l11 -159q-145 13 -329 13q-185 0 -350 -13l-18 159h78q44 0 61 13q-11 37 -53 95l-224 304 l-209 -302q-39 -58 -47 -94q17 -16 65 -16h88l-21 -159q-138 13 -325 13q-167 0 -308 -13z" />
<glyph unicode="Y" horiz-adv-x="1582" d="M-5 1405q149 14 298 14q275 0 391 -14l16 -140h-67q-59 0 -82 -5q12 -49 36 -91l267 -465q142 257 231 449q25 55 34 107q-21 5 -76 5h-87l29 140q127 14 308 14q191 0 292 -14l-32 -140h-91q-54 0 -80 -5q-14 -20 -26 -35q-5 -7 -6 -9q-8 -35 -221 -401l-173 -300v-239 q0 -78 10 -135q33 -5 84 -5h107v-149q-148 13 -337 13q-220 0 -384 -13v149h106q57 0 83 5q10 34 10 96v253q-9 14 -22 39.5t-20 36.5l-349 587q-12 19 -26.5 46.5t-23 40.5t-18.5 20q-27 5 -86 5h-69z" />
<glyph unicode="Z" horiz-adv-x="1320" d="M92 92v82l774 1083h-234q-78 0 -167 -12.5t-121 -39.5q-3 -29 -3 -105q0 -8 0.5 -24.5t0.5 -24.5q-33 0 -99.5 -0.5t-101.5 -0.5q-3 35 -19.5 163.5t-21.5 176.5q283 23 554 23h439q30 0 50.5 -2.5t41.5 -9.5t31.5 -23t10.5 -40v-90l-792 -1096h331q78 0 145 7 q51 48 78 109.5t27 173.5q39 -1 117 -4.5t88 -3.5q8 -185 11 -305q0 -35 -10 -116q-76 -13 -282 -13h-795q-53 12 -53 92z" />
<glyph unicode="[" horiz-adv-x="741" d="M205 -219v1740h312q89 0 119.5 -14.5t30.5 -65.5v-45h-200v-1488h200v-52q0 -16 -5.5 -29t-11 -20.5t-19.5 -13t-20 -8t-24 -3.5t-19 -1h-18h-345z" />
<glyph unicode="\" horiz-adv-x="961" d="M0 1479h179q49 0 75.5 -15.5t44.5 -50.5l662 -1432h-182q-84 0 -109 49z" />
<glyph unicode="]" horiz-adv-x="743" d="M76 -92h199v1488h-199v53q0 52 24 73h438v-1741h-262q-55 0 -80.5 1t-62 9.5t-57.5 25.5v91z" />
<glyph unicode="^" horiz-adv-x="1233" d="M99 528q10 41 37 88l382 679q52 0 85.5 0.5t46.5 0.5h16q34 0 57 -12l379 -668q26 -45 26 -77q0 -50 -66 -61l-132 -29l-312 566h-1l-310 -565l-128 30q-27 6 -39 9.5t-25 13.5t-16 25z" />
<glyph unicode="_" horiz-adv-x="1029" d="M-10 -252q0 48 32 63t94 15q10 0 29 -0.5t28 -0.5h866v-69q0 -34 -22.5 -52t-65.5 -28h-961v72z" />
<glyph unicode="`" horiz-adv-x="1203" d="M364 1537h308l170 -345q-30 0 -92 -0.5t-92 -0.5z" />
<glyph unicode="a" d="M97 272q0 321 552 321h86v52q0 140 -28 201t-96 61q-154 0 -299 -212l-188 120q7 90 143.5 154.5t318.5 64.5q232 0 346.5 -94t114.5 -297q0 -1 -0.5 -109t-0.5 -263q0 -97 12 -147q23 -1 73 -1h82v-97q-121 -36 -304 -36q-64 0 -100 16q-44 37 -65 103 q-135 -132 -306 -132q-155 0 -248 76.5t-93 218.5zM406 281q0 -82 36.5 -122t99.5 -40q85 0 185 79q8 162 8 279h-96q-111 0 -172 -51.5t-61 -144.5z" />
<glyph unicode="b" horiz-adv-x="1383" d="M36 1357v100q146 36 382 36q71 0 92 -26t21 -83v-459q141 110 312 110q205 0 320.5 -140t115.5 -364q0 -124 -37.5 -225t-102 -167t-148 -104t-177.5 -44q-51 -3 -99 -3q-85 1 -269 9t-301 11l6 85q44 27 55.5 76t11.5 164v911q0 55 -3 106q-47 7 -87 7h-92zM531 482 q0 -195 7 -362q80 -9 189 -9q107 0 167 106t60 308q0 369 -184 369q-110 0 -229 -86q-10 -130 -10 -326z" />
<glyph unicode="c" horiz-adv-x="1139" d="M105 496q0 131 46 235t126 169.5t184 99.5t224 34q240 0 375 -113l-17 -200h-168q-46 91 -96 132t-114 41q-107 0 -174.5 -96.5t-67.5 -258.5q0 -204 73.5 -310t197.5 -106q100 0 182 24t166 76l16 -145q-152 -101 -388 -101q-255 0 -410 137.5t-155 381.5z" />
<glyph unicode="d" horiz-adv-x="1382" d="M104 489q0 257 122.5 403t338.5 146q160 0 291 -91v323q0 47 -4 80q-47 7 -87 7h-92v100q154 37 414 37q53 0 67 -20t14 -78v-1139q0 -79 11 -134h170v-98q-144 -36 -303 -36q-89 0 -123.5 24.5t-47.5 105.5q-115 -142 -320 -142q-197 0 -324 140.5t-127 371.5zM431 500 q0 -377 215 -377q72 0 128 43.5t85 121.5q0 327 -6 533q-44 34 -100 53.5t-103 19.5q-62 0 -106 -32.5t-68 -90.5t-34.5 -124.5t-10.5 -146.5z" />
<glyph unicode="e" horiz-adv-x="1211" d="M105 509q0 238 153.5 381.5t410.5 143.5q197 0 322 -107t125 -289q0 -106 -41.5 -139.5t-147.5 -33.5h-503q17 -161 99.5 -246t223.5 -85q147 0 281 90l53 -92q-135 -155 -411 -155q-262 0 -413.5 140t-151.5 392zM423 597h393q1 6 1 18q0 126 -46 205.5t-139 79.5 q-188 0 -209 -303z" />
<glyph unicode="f" horiz-adv-x="842" d="M47 870v55q0 83 127 83h89v79q0 105 36.5 185t100 126.5t143 69.5t172.5 23q158 0 275 -57v-224h-162q-20 66 -47.5 104.5t-55.5 42.5q-82 0 -115.5 -45.5t-33.5 -180.5v-123h271v-62q0 -25 -9.5 -41t-30 -23.5t-40.5 -9.5t-51 -2h-140v-601v-44.5t2.5 -34.5t6 -29 t11 -20.5t18 -17t27.5 -11t38 -10t51 -7.5l9 -107l-118 5q-194 7 -205 7q-130 0 -295 -12l4 107q53 6 79 12t40.5 22t16.5 33.5t2 59.5v648h-216z" />
<glyph unicode="g" horiz-adv-x="1135" d="M60 -184q0 148 203 209q-48 15 -75.5 56t-27.5 92q0 142 115 191q-86 42 -130.5 120t-44.5 181q0 173 122.5 268.5t329.5 95.5q115 0 223 -40l304 27q25 -17 31 -46t6 -101q-35 0 -105.5 -0.5t-106.5 -0.5q85 -106 85 -208q0 -166 -117 -260t-353 -94q-79 0 -157 14 q-21 -34 -21 -82q0 -38 30.5 -51t132.5 -13q80 0 124.5 -1t115 -6.5t110.5 -16t89.5 -31.5t75 -50.5t44 -75.5t18.5 -105q0 -339 -566 -339q-230 0 -342.5 71t-112.5 196zM310 -156q0 -157 234 -157q157 0 222.5 41t65.5 116q0 88 -51 123.5t-198 35.5q-41 0 -109.5 -2 t-77.5 -2q-26 -26 -56 -73.5t-30 -81.5zM380 657q0 -113 44 -168.5t121 -55.5q80 0 124.5 55.5t44.5 168.5q0 121 -43.5 183.5t-124.5 62.5q-86 0 -126 -60.5t-40 -185.5z" />
<glyph unicode="h" horiz-adv-x="1417" d="M36 1357v100q152 37 386 37q73 0 91 -18.5t18 -85.5v-489q75 62 172.5 97.5t197.5 35.5q153 0 225.5 -85t72.5 -252v-438q0 -77 13 -136h144l6 -106q-139 -34 -307 -34q-174 0 -174 96q0 46 3 188.5t3 219.5v22q0 50 -0.5 74.5t-1.5 67t-4.5 64.5t-9 53.5t-15 47.5 t-22.5 33t-31.5 24t-41.5 7q-71 0 -137 -41t-93 -96v-481q0 -37 0.5 -52.5t3.5 -37.5t9 -30t18.5 -18.5t30 -15.5t45.5 -10l9 -110l-39 2q-193 10 -248 10q-127 0 -265 -12l5 109q35 5 55 11t34 14t19.5 25.5t7.5 37t2 57.5v1031q0 51 -6 77q-44 7 -85 7h-91z" />
<glyph unicode="i" horiz-adv-x="728" d="M38 882v111q60 13 158 22t176 9q55 0 89 -6.5t63 -29.5q7 -32 7 -59v-643q0 -98 13 -163h139l11 -101q-143 -34 -308 -34q-174 0 -174 96q0 25 3.5 95t3.5 103v519q0 42 -4 73q-28 8 -72 8h-105zM188 1335q0 69 53 108t132 39q81 0 133.5 -40t52.5 -107 q0 -69 -54.5 -107.5t-131.5 -38.5q-79 0 -132 40t-53 106z" />
<glyph unicode="j" horiz-adv-x="897" d="M29 -354l32 288q18 -2 75 -11t79 -12q1 -33 16 -169q5 -3 30.5 -7t41.5 -4q52 0 73 52t21 154q0 37 -20 244q-2 17 -2.5 157t-0.5 271l-1 131q0 77 -4 134q-35 8 -86 8h-92v111q138 31 298 31q168 0 196 -56q0 -155 -0.5 -464.5t-0.5 -464.5q0 -224 -97.5 -337.5 t-287.5 -113.5q-90 0 -169.5 18.5t-100.5 39.5zM343 1349q0 70 52.5 109t132.5 39q81 0 133 -40t52 -108t-54 -106.5t-131 -38.5q-80 0 -132.5 40t-52.5 105z" />
<glyph unicode="k" horiz-adv-x="1344" d="M34 1357v99q145 35 412 40q54 -15 68.5 -47t14.5 -106v-769l215 186q95 82 95 103q0 25 -63 25v120h529v-126q-92 0 -150 -27t-125 -83l-223 -188l298 -390q37 -48 81 -71t108 -23q21 0 31 1l18 -114q-120 13 -288 13q-148 0 -283 -12v109q41 0 50 8q-13 21 -50 73 q-113 157 -200 284l-43 -30v-204q0 -75 18.5 -98.5t95.5 -35.5l6 -106q-240 12 -284 12q-130 0 -271 -12l4 107q43 6 62.5 11t34.5 19.5t18 35t3 62.5v1042q0 53 -5 84q-42 8 -72 8h-105z" />
<glyph unicode="l" horiz-adv-x="727" d="M31 1358v100q161 36 337 36q70 0 101.5 -8.5t54.5 -36.5v-1200q0 -79 12 -127h161v-100q-138 -33 -316 -33q-145 0 -173 88q0 18 1.5 57t1.5 64q3 63 3 134v928q0 54 -7 90q-50 8 -86 8h-90z" />
<glyph unicode="m" horiz-adv-x="2054" d="M49 882v109q52 14 146.5 23t181.5 9q64 0 156 -17q0 -11 1 -33t1 -33q0 -5 -0.5 -21.5t-0.5 -30.5q182 145 387 145q188 0 250 -145q186 147 370 147q294 0 294 -317v-459q0 -77 13 -136h139l11 -106q-142 -34 -308 -34q-174 0 -174 96q0 24 3.5 94.5t3.5 104.5v355 q0 144 -20.5 191.5t-80.5 47.5q-76 0 -137 -38t-95 -94v-515q0 -74 21 -97.5t103 -35.5l5 -104q-162 12 -299 12q-133 0 -241 -12v110q31 5 48.5 11t28.5 12.5t15.5 22.5t5.5 30.5t1 46.5v412q0 145 -18.5 191.5t-74.5 46.5q-77 0 -145.5 -38.5t-96.5 -93.5v-491 q0 -84 14.5 -111t80.5 -39l4 -110q-168 12 -307 12q-83 0 -225 -12v104q43 3 67.5 10t36.5 25t14.5 37.5t2.5 59.5v573q0 45 -4 77q-40 8 -100 8h-78z" />
<glyph unicode="n" horiz-adv-x="1438" d="M49 882v111q146 30 315 30q71 0 167 -17v-117q84 70 188 107t203 37q139 0 218 -84.5t79 -242.5v-447q0 -84 13 -136h139l12 -106q-143 -34 -309 -34q-173 0 -173 96q0 25 3 97t3 106v368q0 225 -132 225q-55 0 -119 -35t-113 -87v-515q0 -76 18 -101.5t89 -38.5l10 -110 q-219 12 -289 12q-138 0 -264 -12l5 110q81 10 100 34.5t19 110.5v558q0 42 -4 73q-25 8 -64 8h-114z" />
<glyph unicode="o" horiz-adv-x="1330" d="M105 504q0 128 45.5 230.5t123.5 167t178 99t214 34.5q246 0 402.5 -144t156.5 -387q0 -130 -46 -232.5t-124 -165.5t-177.5 -96t-211.5 -33q-162 0 -288.5 61.5t-199.5 182.5t-73 283zM432 505q0 -199 56.5 -294t176.5 -95q123 0 177.5 95.5t54.5 293.5t-56.5 293 t-175.5 95q-122 0 -177.5 -96t-55.5 -292z" />
<glyph unicode="p" horiz-adv-x="1375" d="M27 882v109q132 32 334 32q73 0 150 -16q0 -85 2 -90q129 118 314 118q208 0 325.5 -137.5t117.5 -378.5q0 -257 -132.5 -399.5t-343.5 -142.5q-154 0 -272 87v-177t-0.5 -90.5t-0.5 -26.5q0 -81 17 -100t99 -34l10 -108q-172 21 -259 21q-161 0 -301 -21l5 109 q32 5 50 8.5t32.5 13.5t20.5 17t10 30t4.5 40t0.5 58v982q0 60 -3 88q-36 8 -88 8h-92zM525 528q0 -192 14 -276q67 -129 189 -129q60 0 103.5 31.5t67.5 87t35 120.5t11 143q0 193 -41 288t-128 95q-140 0 -249 -101q-2 -166 -2 -259z" />
<glyph unicode="q" horiz-adv-x="1341" d="M104 511q0 140 56.5 257t162 187.5t238.5 70.5q62 0 151.5 -22.5t145.5 -48.5v64q88 4 138 4q206 0 284 -19v-79q-116 -62 -116 -175v-978q0 -33 0.5 -46.5t4.5 -31.5t9.5 -23.5t20.5 -14t32.5 -12t49.5 -8.5l7 -108q-151 21 -279 21q-122 0 -281 -21l7 109 q78 13 97.5 36t19.5 105v286q-144 -87 -299 -87q-199 0 -324 145t-125 389zM429 508q0 -185 50 -285t152 -100q60 0 120 39t94 95q0 105 0.5 293.5t0.5 277.5q-52 30 -113.5 45t-108.5 15q-195 0 -195 -380z" />
<glyph unicode="r" horiz-adv-x="1064" d="M55 882v109q126 31 329 31q71 0 148 -16v-187q77 107 159 161.5t194 54.5q80 0 148 -26l-23 -297h-146l-25 149q-14 1 -37 1q-63 0 -113 -27t-80 -71.5t-45.5 -98.5t-15.5 -112v-288v-39t1 -31.5t3.5 -27t6.5 -20t10.5 -17t15.5 -12t22 -11t28.5 -7.5t37.5 -7l10 -105 q-254 12 -305 12q-127 0 -265 -12l5 105q44 6 68 12.5t35.5 22t13.5 30t2 48.5v7v21t-0.5 39.5t-0.5 70.5v105.5v152.5v204q0 47 -4 68q-30 8 -63 8h-114z" />
<glyph unicode="s" horiz-adv-x="1053" d="M77 85l49 259l187 -35l15 -161q65 -33 169 -33q77 0 118.5 35t41.5 91q0 33 -21 61t-60.5 49.5t-76.5 36.5t-88 33t-76 29q-124 54 -184 119.5t-60 167.5q0 141 118 219.5t339 78.5q240 0 361 -86q-3 -22 -49 -241l-162 26q-9 120 -11 139q-52 25 -159 25 q-72 0 -110 -29.5t-38 -83.5q0 -27 14.5 -50t35.5 -39t56 -32.5t63.5 -26.5t70.5 -24.5t66 -24.5q145 -58 213.5 -128t68.5 -164q0 -83 -34.5 -145.5t-96.5 -99.5t-140.5 -55.5t-172.5 -18.5q-124 0 -254.5 31t-192.5 77z" />
<glyph unicode="t" horiz-adv-x="978" d="M20 877v63q0 25 14 36t44 16q9 2 148 16l25 171q6 40 33 105l15 38h227v-314h308v-52q0 -49 -26 -64.5t-80 -15.5q-8 0 -26.5 0.5t-28.5 0.5h-147v-553q0 -104 23.5 -150t82.5 -46q36 0 67 24.5t36 46.5q5 19 18 122h181v-251q-139 -86 -364 -86q-356 0 -356 322v571 h-194z" />
<glyph unicode="u" horiz-adv-x="1359" d="M50 993q143 31 304 31q159 0 173 -56q0 -109 0.5 -326.5t0.5 -326.5q0 -34 1.5 -57t8 -50t18.5 -42.5t34 -26.5t53 -11q65 0 142 32.5t94 54.5q11 88 11 299v281q0 47 -7 82q-28 5 -74 5h-75l-6 111q138 31 304 31q147 0 169 -56v-698q0 -89 13 -147h157v-98 q-156 -37 -313 -37q-98 0 -136 23.5t-39 100.5q-88 -66 -169.5 -100.5t-190.5 -34.5q-149 0 -228 83t-79 238v493q0 41 -5 86q-30 5 -78 5h-77z" />
<glyph unicode="v" horiz-adv-x="1298" d="M4 1003q93 21 299 21q134 0 268 -21q11 -54 20 -121h-47q-39 0 -60 -8q4 -14 31 -88q97 -276 190 -508q169 471 207 596q-24 8 -66 8h-53l16 121q113 21 257 21q128 0 229 -21v-121h-49q-52 0 -91 -8q-28 -66 -132 -331t-147 -368l-76 -179q-58 -5 -145 -5t-136 19 l-333 791q-21 51 -36 73q-31 8 -73 8h-54z" />
<glyph unicode="w" horiz-adv-x="1879" d="M-2 1003q92 21 285 21q151 0 271 -21q10 -40 20 -121h-46q-40 0 -60 -8l188 -601q29 91 63.5 204.5t55.5 182t43.5 139t39 114t30.5 67.5q29 14 95 14q67 0 100 -12.5t47 -54.5l214 -661l139 531q3 10 8.5 36.5t9.5 40.5q-24 8 -62 8h-53q1 4 7 55t8 66q108 21 247 21 q129 0 231 -21q0 -20 -0.5 -60.5t-0.5 -60.5h-59q-47 0 -79 -8q-179 -555 -290 -878q-59 -5 -150 -5q-64 0 -127 16q-29 42 -29 67l-180 540q-98 -316 -207 -618q-59 -5 -151 -5q-74 0 -138 27l-289 779q-15 40 -37 77q-31 8 -77 8h-59z" />
<glyph unicode="x" horiz-adv-x="1313" d="M16 -12l19 119q68 6 99 20t87 58l253 309l-209 293q-26 36 -71 87q-29 8 -72 8h-61l-14 121q99 21 275 21q170 0 306 -21q10 -40 20 -121h-45q-37 0 -54 -8q7 -12 24 -33.5t22 -29.5l124 -175q27 36 172 238q-20 8 -57 8h-50l22 121q116 21 262 21q116 0 219 -21 l-18 -121h-44q-55 0 -96 -8l-114 -141q-88 -110 -160 -194l222 -303q57 -78 89 -97t110 -26l20 -125q-123 12 -300 12q-154 0 -270 -12l-16 119q68 8 82 22q-6 20 -47 77l-137 194l-118 -162q-54 -75 -68 -108q22 -15 89 -23q-4 -14 -14 -61t-13 -58q-100 12 -238 12 q-98 0 -230 -12z" />
<glyph unicode="y" horiz-adv-x="1297" d="M4 1003q97 20 281 20q157 0 286 -20q13 -62 19 -121h-46q-42 0 -63 -8q34 -100 117 -318l106 -278q106 290 188 524q3 10 10.5 34.5t10.5 37.5q-24 8 -65 8h-54l17 121q113 21 256 21q129 0 230 -21v-121h-60q-46 0 -79 -8l-347 -843q-29 -71 -48.5 -115.5t-45.5 -96 t-47 -82t-50 -63t-59 -50t-68.5 -32.5t-83.5 -21t-101 -6q-142 0 -215 33l39 154q100 -37 191 -37q44 0 74.5 13.5t55.5 50t43 78t46 119.5l-341 792q-28 65 -51 106q-38 8 -78 8h-59z" />
<glyph unicode="z" horiz-adv-x="1079" d="M74 90v80l620 708h-332q-70 0 -96 -18q-25 -62 -35 -158h-4q-86 -6 -129 -7q-5 109 -5 199q0 23 0.5 61.5t0.5 56.5q126 0 392 -2t397 -2q66 0 84.5 -19t18.5 -86v-86l-594 -684h341q59 0 87 17q25 44 60 168q17 1 37 2t44 2t37 2v-194q0 -27 2.5 -70t2.5 -65 q-115 5 -323 5h-411q-70 0 -138 4q-30 6 -43.5 24t-13.5 62z" />
<glyph unicode="{" horiz-adv-x="748" d="M82 630v66q126 74 126 173v412q0 72 21.5 120.5t65 74t98 35.5t132.5 10q67 0 102 -12.5t38 -52.5v-26q-120 -7 -158.5 -37t-38.5 -122v-388q0 -179 -135 -234q135 -57 135 -232v-389q0 -30 1 -52t5 -36.5t6 -23t11 -14t12 -7t16.5 -4.5t18.5 -4q38 -10 127 -19v-24 q0 -23 -20 -46q-66 -20 -129 -20q-75 0 -128.5 11t-95.5 38t-63 77.5t-21 124.5v402q0 80 -30.5 127.5t-95.5 71.5z" />
<glyph unicode="|" horiz-adv-x="1234" d="M504 -49v1556h97q60 0 91.5 -20.5t35.5 -66.5v-1657h-97q-88 0 -114 43q-13 53 -13 145z" />
<glyph unicode="}" horiz-adv-x="744" d="M82 -130q120 9 157 36.5t37 121.5q0 43 1 163.5t1 163.5q0 119 30 190.5t106 103.5q-138 52 -138 263q0 45 1 169.5t1 167.5q0 40 -3.5 67.5t-14.5 47t-23 31t-38 19t-50 11t-67 6.5v25q0 39 35 52t105 13q94 0 151.5 -13t96.5 -49t54.5 -96.5t15.5 -157.5v-305 q0 -63 34 -108.5t87 -68.5v-93q-79 -29 -100.5 -92.5t-21.5 -209.5v-186q0 -115 -9 -178.5t-41 -103.5q-38 -48 -105.5 -65t-173.5 -17q-35 0 -59.5 3t-46.5 18t-22 42v29z" />
<glyph unicode="~" horiz-adv-x="1204" d="M113 495q19 72 99.5 124t157.5 52q46 0 100 -13.5t83.5 -25.5t79.5 -34q76 -34 114 -47t76 -13q71 0 124 31t79 76q49 -63 64 -102q-23 -70 -90.5 -109.5t-152.5 -39.5q-41 0 -85 10t-71 20t-88 36.5t-90 38.5q-75 31 -139 31q-105 0 -185 -132q-59 61 -76 97z" />
<glyph unicode="&#xa1;" horiz-adv-x="786" d="M216 43q0 13 4 50t10.5 98t11.5 115q10 128 52 600q4 55 27 72t92 17q41 0 78 -17q-1 -70 27 -382l39 -452q2 -23 2 -59q0 -64 -39.5 -85.5t-121.5 -21.5q-119 0 -181 56q0 2 -0.5 5t-0.5 4zM230 1272q0 71 45.5 117t123.5 46t123.5 -46t45.5 -117q0 -68 -46.5 -115.5 t-122.5 -47.5t-122.5 47t-46.5 116z" />
<glyph unicode="&#xa2;" horiz-adv-x="1218" d="M140 546q0 119 37.5 216t104 162.5t152.5 106.5t188 57v226h34q54 0 72 -16t18 -68v-133h12q23 0 79 -5.5t146 -31t125 -65.5q-2 -36 -4 -56l-31 -155l-182 11q-30 62 -64.5 97t-80.5 48v-758q162 1 312 127l49 -96q-106 -156 -361 -175v-217h-34q-59 0 -74.5 17 t-15.5 72v129q-223 19 -352.5 152.5t-129.5 354.5zM459 578q0 -284 163 -370v736q-163 -79 -163 -366z" />
<glyph unicode="&#xa3;" horiz-adv-x="1246" d="M76 117q120 36 175 92t55 162q0 144 -14 295h-200v61q0 45 20 56.5t67 11.5h96q-27 186 -27 266q0 88 28 155.5t73.5 109.5t110 68.5t130 36.5t140.5 10q133 0 254.5 -27t180.5 -81q-1 -44 -1 -133q0 -90 1 -134l-180 -23q-40 131 -100 190.5t-155 59.5q-86 0 -129.5 -61 t-43.5 -177q0 -60 8 -128l14 -132h324v-60q0 -43 -23.5 -56.5t-75.5 -13.5q-4 0 -22.5 0.5t-66 0.5h-121.5q7 -105 7 -148q0 -103 -26.5 -191.5t-84.5 -184.5h171q65 0 102 2t78.5 10t65.5 23t50.5 42.5t46.5 67.5t41 98l141 -28q0 -154 -28 -342q-170 -19 -470 -19 q-260 0 -568 4q-44 39 -44 117z" />
<glyph unicode="&#xa4;" horiz-adv-x="1304" d="M133 1131q8 7 28.5 28t35.5 33t29 18q30 -17 50 -37l80 -80q122 91 269 91q146 0 270 -92l132 132l9 -9q20 -20 31 -31.5t20.5 -29t9.5 -33.5q0 -11 -1 -13l-107 -106q90 -117 90 -272q0 -156 -91 -268l130 -132l-8 -8q-58 -58 -86 -70q-16 6 -36 24t-52 52t-39 41 q-124 -90 -273 -90q-147 0 -267 90l-131 -129q-67 65 -80 88q14 28 38 53l82 81q-90 114 -90 269t90 269zM308 731q0 -139 92.5 -231t226.5 -92q135 0 227.5 93.5t92.5 229.5q0 137 -92 230.5t-228 93.5q-135 0 -227 -93t-92 -231z" />
<glyph unicode="&#xa5;" horiz-adv-x="1597" d="M2 1409q131 13 371 13q207 0 319 -14l13 -134h-78q-52 0 -71 -6q12 -51 36 -91l269 -473q140 258 233 457q27 60 34 107q-21 6 -76 6h-87l28 135q127 13 262 13h94q140 0 244 -14l-32 -134h-126q-37 0 -54.5 -20.5t-71.5 -124.5l-281 -500h242v-53q0 -24 -5 -38.5 t-19.5 -21t-24.5 -8.5t-34 -3h-223v-104h306v-52q0 -43 -19.5 -57t-60.5 -14h-226v-33q0 -62 10 -109q38 -5 98 -5h93v-146q-205 15 -330 15h-48q-137 0 -344 -15v146h91q67 0 98 5q11 39 11 97v45h-308v71q25 29 59.5 40.5t91.5 11.5h156v75l-3 29h-304v71q46 53 151 53h82 q-266 445 -314 527q-10 18 -30.5 56t-32.5 56q-25 6 -79 6h-86z" />
<glyph unicode="&#xa6;" horiz-adv-x="935" d="M350 -287v653h107q58 0 88 -14t41 -49v-730h-130q-66 0 -86 28t-20 112zM350 803v690h107q57 0 87.5 -14.5t41.5 -48.5v-731h-109q-77 0 -102 20t-25 84z" />
<glyph unicode="&#xa7;" horiz-adv-x="1040" d="M133 709q0 91 36 150t110 98q-60 47 -86.5 100.5t-26.5 135.5q0 80 31.5 140.5t87.5 96.5t127.5 53.5t158.5 17.5q67 0 142 -18.5t116 -36.5l41 -18l-41 -216l-114 4q-28 78 -66.5 109t-121.5 31q-78 0 -122.5 -32.5t-44.5 -96.5t45 -101t153 -85q121 -54 188 -90.5 t113.5 -78t62.5 -84.5t16 -106q0 -181 -139 -262q121 -88 121 -234q0 -109 -54.5 -182t-143 -105t-206.5 -32q-152 0 -310 73q-46 21 -69 45q0 175 4 243h119q35 -111 97 -162.5t178 -51.5q85 0 136 35.5t51 103.5q0 43 -41.5 77.5t-164.5 92.5l-139 66q-9 6 -37.5 22.5 t-42 25t-39.5 27.5t-40 33.5t-32.5 39t-28.5 48t-17 56t-7 68.5zM324 736q0 -50 29 -79t105 -69q123 -65 181 -89q108 59 108 144q0 43 -58.5 91.5t-127.5 79.5q-31 14 -58 26t-39.5 18t-22 10t-13 5.5t-4.5 2.5q-51 -29 -75.5 -61.5t-24.5 -78.5z" />
<glyph unicode="&#xa8;" horiz-adv-x="1101" d="M131 1257q0 68 47 111.5t118 43.5q72 0 118.5 -43t46.5 -112q0 -72 -45 -114.5t-120 -42.5t-120 42.5t-45 114.5zM626 1257q0 68 47 111.5t118 43.5q72 0 118.5 -43t46.5 -112q0 -72 -45 -114.5t-120 -42.5t-120 42.5t-45 114.5z" />
<glyph unicode="&#xa9;" horiz-adv-x="1724" d="M113 706q0 151 55.5 288t152.5 238.5t238 162t303 60.5t303 -60t238 -161.5t152.5 -239t55.5 -288.5q0 -154 -57 -291.5t-155.5 -237t-238.5 -158t-298 -58.5q-160 0 -300 58t-238 158t-154.5 237.5t-56.5 291.5zM267 707q0 -127 45.5 -239.5t124 -193t189.5 -127.5 t236 -47q175 0 314 84.5t212.5 222.5t73.5 300q0 128 -46.5 241t-126.5 193.5t-191.5 127.5t-235.5 47q-169 0 -306 -81.5t-213 -221t-76 -306.5zM460 703q0 99 34.5 178t94.5 128t137.5 75t166.5 26q85 0 159 -23t120 -64l-12 -150h-121q-34 70 -72.5 101.5t-88.5 31.5 q-86 0 -135 -78t-49 -192q0 -157 55.5 -237t150.5 -80q139 0 260 77l11 -107q-113 -76 -288 -76q-190 0 -306.5 103.5t-116.5 286.5z" />
<glyph unicode="&#xaa;" horiz-adv-x="877" d="M66 931q0 217 384 217h56v41q0 73 -10.5 111t-26 47.5t-43.5 9.5q-57 0 -105.5 -36.5t-101.5 -106.5q-76 45 -134 84q0 57 92 103.5t221 46.5q173 0 252 -66.5t79 -200.5q0 -19 -0.5 -63t-0.5 -68v-98q0 -90 4 -114q38 -6 107 -6v-68q-88 -22 -184 -22q-61 0 -92 17 q-9 9 -23.5 34t-20.5 31q-96 -94 -215 -94q-109 0 -173.5 52t-64.5 149zM287 938q0 -48 23.5 -75t64.5 -27q56 0 125 51q6 91 6 181h-46q-173 0 -173 -130z" />
<glyph unicode="&#xab;" horiz-adv-x="1062" d="M133 501q8 60 20 97l272 364q9 12 40 48q26 -7 117 -49q-100 -181 -235 -417q102 -191 221 -410q-41 -32 -64 -41t-55 -9zM494 501q3 45 19 97l258 347q7 10 21 26t18 21q39 -11 119 -48q-93 -173 -221 -400l206 -393q-36 -31 -60.5 -40.5t-58.5 -9.5z" />
<glyph unicode="&#xac;" horiz-adv-x="1297" d="M133 659v73q0 59 22 73t86 14h923v-576h-95q-49 0 -74 14t-29 47v355h-833z" />
<glyph unicode="&#xad;" horiz-adv-x="772" d="M73 452v101q0 24 10 39t28.5 20.5t31 7t31.5 1.5h13.5t40.5 0.5t82 0.5h157.5h247.5v-96q0 -32 -23 -49t-67 -25h-552z" />
<glyph unicode="&#xae;" horiz-adv-x="1724" d="M113 706q0 151 55.5 288t152.5 238.5t238 162t303 60.5t303 -60t238 -161.5t152.5 -239t55.5 -288.5q0 -154 -57 -291.5t-155.5 -237t-238.5 -158t-298 -58.5q-160 0 -300 58t-238 158t-154.5 237.5t-56.5 291.5zM267 707q0 -127 45.5 -239.5t124 -193t189.5 -127.5 t236 -47q175 0 314 84.5t212.5 222.5t73.5 300q0 128 -46.5 241t-126.5 193.5t-191.5 127.5t-235.5 47q-169 0 -306 -81.5t-213 -221t-76 -306.5zM492 1004v69q14 1 57 6t76 7q68 4 209 4q166 0 253.5 -49.5t87.5 -171.5q0 -80 -52.5 -133.5t-135.5 -73.5q118 -40 192 -206 q18 -39 26 -45q27 2 76 23l12 -61q-74 -60 -154 -60q-46 0 -71.5 20t-46.5 72q-60 147 -136 245q-67 0 -100 1v-187q0 -28 6 -58q21 -3 47 -3h43v-82q-122 8 -209 8q-64 0 -165 -8v82h46q35 0 51 3q6 20 6 57v486q0 35 -6 53q-6 0 -19.5 1t-21.5 1h-71zM785 720q14 -1 45 -1 q86 0 125.5 34t39.5 111q0 79 -35 110.5t-121 31.5q-37 0 -54 -1v-285z" />
<glyph unicode="&#xb0;" horiz-adv-x="727" d="M98 1174q0 110 76 183t188 73q113 0 189 -73.5t76 -182.5q0 -110 -76 -184t-189 -74q-112 0 -188 73.5t-76 184.5zM196 1174q0 -71 48 -118t118 -47q71 0 118.5 47t47.5 118q0 69 -47.5 116.5t-118.5 47.5t-118.5 -47.5t-47.5 -116.5z" />
<glyph unicode="&#xb1;" horiz-adv-x="1225" d="M133 34v78q0 57 25.5 71.5t104.5 14.5h829v-77q0 -79 -86 -87h-873zM153 671v78q0 44 14.5 59.5t51.5 21.5q39 6 129 6h153v337h47q80 0 110 -14.5t36 -64.5v-258h349v-78q-3 -44 -21.5 -63.5t-67.5 -23.5h-260v-337h-91q-61 0 -81.5 16.5t-20.5 75.5v245h-348z" />
<glyph unicode="&#xb2;" horiz-adv-x="884" d="M111 599q0 15 5 45q198 186 295 288t122 159q23 51 23 112q0 70 -30 107t-89 37q-63 0 -114 -48t-69 -129l-132 94q7 77 97 124.5t217 47.5q148 0 227.5 -64t79.5 -184q0 -60 -26 -117t-88 -123.5t-130.5 -125.5t-187.5 -153h217q56 0 96.5 29.5t71.5 99.5q15 -1 40 -4.5 t35 -4.5q0 -121 -9 -231q-56 -13 -231 -13h-350q-37 0 -52 12t-18 42z" />
<glyph unicode="&#xb3;" horiz-adv-x="866" d="M127 1277q29 81 107.5 122.5t190.5 41.5q125 0 214.5 -55.5t89.5 -153.5q0 -80 -53.5 -135.5t-153.5 -76.5q115 -16 177 -75t62 -160q0 -84 -47 -143t-119 -85t-161 -26q-90 0 -170.5 27.5t-126.5 70.5q2 93 12 178l96 -12q9 -85 55 -127.5t116 -42.5q73 0 115 46t42 120 q0 168 -219 168h-59v40q0 19 6 29.5t10 12.5t21 4t21 3q79 6 146.5 54.5t67.5 122.5q0 58 -38.5 89.5t-98.5 31.5q-63 0 -116 -41t-69 -114z" />
<glyph unicode="&#xb4;" horiz-adv-x="1216" d="M362 1192q64 126 170 345h320q-96 -117 -306 -345h-184z" />
<glyph unicode="&#xb5;" horiz-adv-x="1562" d="M171 990q161 35 318 35q76 0 121 -11q39 -9 39 -67v-311q0 -60 0.5 -178t0.5 -177q0 -77 24.5 -118.5t96.5 -41.5q62 0 136.5 35.5t92.5 58.5q4 25 6 61t2.5 61t1.5 76t1 70v315q0 45 -6 81q-29 6 -64 6h-86l-5 105q150 33 306 33q62 0 126 -8q41 -10 41 -68v-639 q0 -142 16 -184q29 -2 92 -2h61v-97q-154 -36 -316 -36q-42 0 -66 2t-46.5 8.5t-34 20.5t-18.5 36t-8 56q-86 -62 -162 -97.5t-152 -35.5q-36 0 -69 11q0 -56 2.5 -89.5t10 -66.5t22.5 -52t40 -33.5t63 -23.5q0 -10 0.5 -22.5t1 -19t0.5 -10.5v-26q-91 -54 -219 -54 q-49 0 -83 4.5t-67 24t-41 54.5q-12 48 -12 129v993q0 45 -6 81q-30 6 -66 6h-89z" />
<glyph unicode="&#xb6;" horiz-adv-x="1207" d="M82 1004q0 109 39.5 185t117 118.5t178 61t238.5 18.5h142q245 0 327 -15v-100h-92q-74 0 -103 -11q-15 -41 -15 -120v-1077q0 -77 16 -121q27 -9 103 -9h89v-136q-187 19 -348 19v1494h-154v-1494q-161 0 -348 -19v136h89q76 0 103 9q16 44 16 121v531 q-201 0 -299.5 105.5t-98.5 303.5z" />
<glyph unicode="&#xb7;" horiz-adv-x="642" d="M154 799q0 70 46 117t121 47q74 0 120 -48t46 -116q0 -71 -44 -116.5t-121 -46.5q-78 0 -123 46t-45 117z" />
<glyph unicode="&#xb8;" horiz-adv-x="675" d="M113 -417q0 24 6 51q82 -24 134 -24q62 0 98 26t36 73q0 97 -100 113q-3 0 -37 -8q-8 5 -27.5 13t-23.5 10l85 174h101l-56 -107q112 -6 168.5 -46t56.5 -130q0 -111 -69.5 -168.5t-188.5 -57.5q-113 0 -177 41q-6 17 -6 40z" />
<glyph unicode="&#xb9;" horiz-adv-x="711" d="M139 1381q176 48 257 48q42 0 56 -8.5t17 -31.5v-696q0 -31 6 -50q16 -3 50 -3h67v-96q-102 9 -215 9q-105 0 -225 -9v96h82q24 0 34 3q7 25 7 65v570q0 25 -1 37q-21 9 -47 9q-3 0 -9 -0.5t-9 -0.5l-65 -6z" />
<glyph unicode="&#xba;" horiz-adv-x="928" d="M72 1087q0 168 110.5 265t282.5 97t281.5 -98t109.5 -264q0 -114 -54.5 -196.5t-141.5 -121.5t-195 -39q-175 0 -284 96t-109 261zM315 1088q0 -126 35 -192.5t115 -66.5q79 0 113.5 67t34.5 193q0 127 -34.5 193.5t-113.5 66.5q-81 0 -115.5 -66.5t-34.5 -194.5z" />
<glyph unicode="&#xbb;" horiz-adv-x="1062" d="M140 944q65 34 115 48q31 -36 37 -44l238 -327q22 -31 28.5 -55t9.5 -65q-41 -52 -147 -192.5t-168 -213.5q-40 8 -112 56l213 393q-143 258 -214 400zM485 961q88 41 116 49q34 -43 38 -48l249 -338q17 -23 26 -44.5t11 -36.5t3 -42q-34 -43 -101.5 -133.5t-121.5 -160 t-106 -129.5q-50 11 -111 56q19 34 99 178.5t128 231.5q-150 265 -230 417z" />
<glyph unicode="&#xbc;" horiz-adv-x="1884" d="M83 1381q178 48 257 48q42 0 56 -8.5t18 -31.5v-696q0 -28 5 -50q16 -3 51 -3h66v-96q-100 9 -214 9q-105 0 -225 -9v96h82q24 0 34 3q6 28 6 65v607q-21 9 -47 9q-3 0 -9 -0.5t-10 -0.5l-64 -6zM419 -24q139 283 407 820.5t302 605.5q40 40 113 40q35 0 85 -9 q-36 -76 -56 -116l-601 -1211q-36 -72 -74 -129q-19 -8 -48 -8h-58q-46 0 -70 7zM1026 356q11 19 37 57q316 453 360 512h100q24 0 35 -0.5t26 -3t21 -8.5t11 -17t5 -28v-526h175v-42q0 -34 -18 -45t-55 -11q-6 0 -20 0.5t-21 0.5h-61v-73q0 -48 7 -70q24 -3 53 -3h70v-103 q-123 10 -219 10q-103 0 -240 -10v103h75q39 0 55 3q7 22 7 69v74h-360q-43 57 -43 111zM1182 342h247v368q-93 -134 -247 -368z" />
<glyph unicode="&#xbd;" horiz-adv-x="1911" d="M83 1381q178 48 257 48q42 0 56 -8.5t18 -31.5v-696q0 -28 5 -50q16 -3 51 -3h66v-96q-100 9 -214 9q-105 0 -225 -9v96h82q24 0 34 3q6 28 6 65v607q-21 9 -47 9q-3 0 -9 -0.5t-10 -0.5l-64 -6zM416 -24q26 59 78 161q70 141 290.5 582l341.5 683q40 40 113 40 q35 0 85 -9l-693 -1440q-65 -25 -129 -25q-36 0 -86 8zM1149 54q0 15 5 45q198 187 295 288.5t121 158.5q23 52 23 112q0 144 -118 144q-63 0 -114 -48t-69 -129l-132 94q7 77 97 124.5t217 47.5q147 0 227 -64t80 -184q0 -48 -19.5 -96.5t-51 -92.5t-91 -101t-117.5 -105.5 t-153 -123.5h216q57 0 97.5 29.5t71.5 99.5q14 -1 39 -4.5t35 -4.5q0 -134 -8 -231q-57 -13 -231 -13h-351q-36 0 -51 11.5t-18 42.5z" />
<glyph unicode="&#xbe;" horiz-adv-x="2006" d="M116 1277q30 81 108.5 122.5t190.5 41.5q125 0 214.5 -55.5t89.5 -153.5q0 -80 -54 -135.5t-154 -76.5q116 -16 177.5 -75t61.5 -160q0 -84 -47 -143t-119 -85t-161 -26q-90 0 -170.5 27.5t-126.5 70.5q5 110 12 178l97 -12q8 -85 54 -127.5t117 -42.5q73 0 115 46 t42 120q0 168 -220 168h-58v40q0 19 6 29.5t10 12.5t21 4t21 3q78 6 146 54.5t68 122.5q0 58 -39 89.5t-99 31.5q-63 0 -116 -41t-68 -114zM565 -24q50 106 80 165l630 1261q40 40 113 40q35 0 85 -9l-36 -76t-43 -88l-633 -1267q-35 -34 -109 -34q-37 0 -87 8zM1166 356 q14 24 37 57q305 440 359 512h86q24 0 35 -0.5t26.5 -3t21.5 -8.5t11 -17t5 -28v-526h174v-42q0 -34 -17 -45t-53 -11q-6 0 -21 0.5t-23 0.5h-60v-73q0 -51 6 -70q24 -3 54 -3h69v-103q-121 10 -218 10q-90 0 -226 -10v103h69q38 0 54 3q7 22 7 69v74h-354q-42 55 -42 111z M1331 342h231v335z" />
<glyph unicode="&#xbf;" horiz-adv-x="1055" d="M101 317q0 34 8.5 66.5t20 59t35.5 58.5t42.5 53t55 54.5t58.5 52.5t66 56q30 25 43 60.5t13 110.5q0 87 -8 134q78 9 143 9q61 -33 109.5 -87t48.5 -111q0 -30 -9 -57t-30.5 -55.5t-35 -44t-46 -46t-40.5 -38.5q-75 -75 -110 -140.5t-35 -143.5q0 -87 44 -135.5 t112 -48.5q77 0 199 32q3 66 4 137h168v-249q-24 -8 -64 -20.5t-144.5 -33.5t-184.5 -21q-207 0 -335 91.5t-128 256.5zM407 1302q0 56 37.5 95.5t109.5 39.5q77 0 118 -42.5t41 -100.5q0 -59 -41.5 -103t-113.5 -44q-68 0 -109.5 47t-41.5 108z" />
<glyph unicode="&#xc0;" horiz-adv-x="1623" d="M4 -13l33 137l37 2q63 0 92.5 30t54.5 97q93 251 454 1166h107q50 0 93 -8q60 -30 98.5 -64t57.5 -84q81 -217 204 -548t169 -452q36 -97 52 -122q28 -6 140 -14l27 -140q-153 13 -316 13q-142 0 -306 -13l-10 133q102 2 102 29q-8 51 -37 132l-46 126h-461l-38 -121 q-28 -87 -28 -127q0 -9 7 -16t21.5 -10.5t25 -5t30.5 -3.5t24 -2l-17 -135q-86 13 -257 13q-213 0 -313 -13zM572 1947h308l170 -345q-31 0 -92.5 -0.5t-91.5 -0.5zM581 534h389q-31 96 -96 308.5t-93 301.5h-7z" />
<glyph unicode="&#xc1;" horiz-adv-x="1623" d="M4 -13l33 137l37 2q63 0 92.5 30t54.5 97q93 251 454 1166h107q50 0 93 -8q60 -30 98.5 -64t57.5 -84q81 -217 204 -548t169 -452q36 -97 52 -122q28 -6 140 -14l27 -140q-153 13 -316 13q-142 0 -306 -13l-10 133q102 2 102 29q-8 51 -37 132l-46 126h-461l-38 -121 q-28 -87 -28 -127q0 -9 7 -16t21.5 -10.5t25 -5t30.5 -3.5t24 -2l-17 -135q-86 13 -257 13q-213 0 -313 -13zM566 1602q64 126 170 345h320q-96 -117 -306 -345h-184zM581 534h389q-31 96 -96 308.5t-93 301.5h-7z" />
<glyph unicode="&#xc2;" horiz-adv-x="1623" d="M4 -13l33 137l37 2q63 0 92.5 30t54.5 97q93 251 454 1166h107q50 0 93 -8q60 -30 98.5 -64t57.5 -84q81 -217 204 -548t169 -452q36 -97 52 -122q28 -6 140 -14l27 -140q-153 13 -316 13q-142 0 -306 -13l-10 133q102 2 102 29q-8 51 -37 132l-46 126h-461l-38 -121 q-28 -87 -28 -127q0 -9 7 -16t21.5 -10.5t25 -5t30.5 -3.5t24 -2l-17 -135q-86 13 -257 13q-213 0 -313 -13zM468 1638q7 28 21 45l188 270h268l166 -237q3 -4 11 -15t11.5 -16.5t8.5 -14.5t8 -16.5t4 -15.5q-6 -21 -51 -21h-142l-149 184l-146 -184h-145q-47 0 -53 21z M581 534h389q-31 96 -96 308.5t-93 301.5h-7z" />
<glyph unicode="&#xc3;" horiz-adv-x="1623" d="M4 -13l33 137l37 2q63 0 92.5 30t54.5 97q93 251 454 1166h107q50 0 93 -8q60 -30 98.5 -64t57.5 -84q81 -217 204 -548t169 -452q36 -97 52 -122q28 -6 140 -14l27 -140q-153 13 -316 13q-142 0 -306 -13l-10 133q102 2 102 29q-8 51 -37 132l-46 126h-461l-38 -121 q-28 -87 -28 -127q0 -9 7 -16t21.5 -10.5t25 -5t30.5 -3.5t24 -2l-17 -135q-86 13 -257 13q-213 0 -313 -13zM418 1712q95 208 249 208q81 0 195 -59q9 -5 28.5 -15t29.5 -15.5t24.5 -10t26.5 -4.5q36 0 67.5 29.5t51.5 69.5q67 -18 114 -43q-57 -105 -116 -158t-129 -53 q-76 0 -190 59q-90 47 -122 47q-17 0 -33.5 -7t-31 -21t-23 -23t-21.5 -27t-14 -20q-60 17 -106 43zM581 534h389q-31 96 -96 308.5t-93 301.5h-7z" />
<glyph unicode="&#xc4;" horiz-adv-x="1623" d="M4 -13l33 137l37 2q63 0 92.5 30t54.5 97q93 251 454 1166h107q50 0 93 -8q60 -30 98.5 -64t57.5 -84q81 -217 204 -548t169 -452q36 -97 52 -122q28 -6 140 -14l27 -140q-153 13 -316 13q-142 0 -306 -13l-10 133q102 2 102 29q-8 51 -37 132l-46 126h-461l-38 -121 q-28 -87 -28 -127q0 -9 7 -16t21.5 -10.5t25 -5t30.5 -3.5t24 -2l-17 -135q-86 13 -257 13q-213 0 -313 -13zM399 1667q0 68 47 111.5t118 43.5q72 0 118.5 -43t46.5 -112q0 -72 -45 -114.5t-120 -42.5t-120 42.5t-45 114.5zM581 534h389q-31 96 -96 308.5t-93 301.5h-7z M894 1667q0 68 47 111.5t118 43.5q72 0 118.5 -43t46.5 -112q0 -72 -45 -114.5t-120 -42.5t-120 42.5t-45 114.5z" />
<glyph unicode="&#xc5;" horiz-adv-x="1623" d="M4 -13l33 137l37 2q63 0 92.5 30t54.5 97q93 251 454 1166h107q50 0 93 -8q60 -30 98.5 -64t57.5 -84q81 -217 204 -548t169 -452q36 -97 52 -122q28 -6 140 -14l27 -140q-153 13 -316 13q-142 0 -306 -13l-10 133q102 2 102 29q-8 51 -37 132l-46 126h-461l-38 -121 q-28 -87 -28 -127q0 -9 7 -16t21.5 -10.5t25 -5t30.5 -3.5t24 -2l-17 -135q-86 13 -257 13q-213 0 -313 -13zM581 534h389q-31 96 -96 308.5t-93 301.5h-7zM592 1792q0 92 61.5 149t157.5 57t157.5 -57t61.5 -149q0 -93 -62 -150t-157 -57q-96 0 -157.5 57t-61.5 150z M687 1792q0 -57 33 -89t91 -32q56 0 90 32.5t34 88.5t-33.5 89t-90.5 33q-56 0 -90 -33.5t-34 -88.5z" />
<glyph unicode="&#xc6;" horiz-adv-x="2154" d="M0 -13l44 137l37 2q56 3 86 16q31 27 69 115q44 102 242.5 516t303.5 640h964l63 -129q17 -36 45.5 -97.5t36.5 -79.5l-177 -17q-43 95 -79 145q-97 24 -262 24q-15 0 -243 -2l133 -469h189q50 0 85 22q24 9 35 29t11 71h99q40 -132 111 -393q-12 -1 -36 -1 q-12 0 -35 0.5t-34 0.5q-44 77 -72.5 105t-68.5 28h-242l143 -504h303q57 0 86.5 1t64 6.5t47.5 16.5q0 31 -21 173q34 0 97.5 -1t96.5 -1q39 -143 83 -323q-163 -26 -391 -26q-85 0 -247.5 4t-246.5 4q-163 0 -329 -13v133l42 4q65 2 65 22q0 4 -2 24q-7 39 -57 237h-460 l-60 -149q-28 -71 -28 -98q0 -10 7 -17.5t22 -11t25 -5t29.5 -3t22.5 -1.5l-28 -135q-95 13 -300 13q-166 0 -269 -13zM619 534h388l-141 562z" />
<glyph unicode="&#xc7;" horiz-adv-x="1446" d="M115 673q0 367 196 565t554 198q140 0 269 -33t214 -84l-23 -310h-190q-13 55 -34 101.5t-53 88.5t-80 66t-107 24q-200 0 -301.5 -152t-101.5 -422q0 -291 105 -439.5t300 -148.5q122 0 235.5 34t252.5 102l19 -167q-226 -132 -528 -132q-219 0 -381.5 79.5t-254 240.5 t-91.5 389zM502 -417q0 24 6 51q82 -24 134 -24q62 0 98 26t36 73q0 97 -100 113q-3 0 -37 -8q-8 5 -27.5 13t-23.5 10l85 174h101l-56 -107q112 -6 168.5 -46t56.5 -130q0 -111 -69.5 -168.5t-188.5 -57.5q-113 0 -177 41q-6 17 -6 40z" />
<glyph unicode="&#xc8;" horiz-adv-x="1409" d="M68 1253v133q251 27 596 27h603l25 -129q21 -113 30 -177l-184 -17q-16 96 -35 145q-92 24 -236 24q-71 0 -264 -4v-467h232q62 0 82 21.5t41 100.5h100q0 -174 -7 -393q-12 -1 -36 -1q-11 0 -34 0.5t-35 0.5q-21 80 -41 106.5t-59 26.5h-243v-504h371q98 0 135 24 q16 47 30 173q116 -2 194 -2l-3 -127q-7 -152 -10 -196q-169 -26 -397 -26q-109 0 -276 4t-237 4q-211 0 -336 -7v153h112q61 0 87 4q11 41 11 101v893q0 59 -12 104q-25 5 -85 5h-119zM465 1947h308l170 -345q-31 0 -92 -0.5t-92 -0.5z" />
<glyph unicode="&#xc9;" horiz-adv-x="1409" d="M68 1253v133q251 27 596 27h603l25 -129q21 -113 30 -177l-184 -17q-16 96 -35 145q-92 24 -236 24q-71 0 -264 -4v-467h232q62 0 82 21.5t41 100.5h100q0 -174 -7 -393q-12 -1 -36 -1q-11 0 -34 0.5t-35 0.5q-21 80 -41 106.5t-59 26.5h-243v-504h371q98 0 135 24 q16 47 30 173q116 -2 194 -2l-3 -127q-7 -152 -10 -196q-169 -26 -397 -26q-109 0 -276 4t-237 4q-211 0 -336 -7v153h112q61 0 87 4q11 41 11 101v893q0 59 -12 104q-25 5 -85 5h-119zM459 1602q64 126 170 345h320q-96 -117 -306 -345h-184z" />
<glyph unicode="&#xca;" horiz-adv-x="1409" d="M68 1253v133q251 27 596 27h603l25 -129q21 -113 30 -177l-184 -17q-16 96 -35 145q-92 24 -236 24q-71 0 -264 -4v-467h232q62 0 82 21.5t41 100.5h100q0 -174 -7 -393q-12 -1 -36 -1q-11 0 -34 0.5t-35 0.5q-21 80 -41 106.5t-59 26.5h-243v-504h371q98 0 135 24 q16 47 30 173q116 -2 194 -2l-3 -127q-7 -152 -10 -196q-169 -26 -397 -26q-109 0 -276 4t-237 4q-211 0 -336 -7v153h112q61 0 87 4q11 41 11 101v893q0 59 -12 104q-25 5 -85 5h-119zM361 1638q7 28 21 45l188 270h268l166 -237q3 -4 11 -15t11.5 -16.5t8.5 -14.5t8 -16.5 t4 -15.5q-6 -21 -51 -21h-142l-149 184l-146 -184h-145q-47 0 -53 21z" />
<glyph unicode="&#xcb;" horiz-adv-x="1409" d="M68 1253v133q251 27 596 27h603l25 -129q21 -113 30 -177l-184 -17q-16 96 -35 145q-92 24 -236 24q-71 0 -264 -4v-467h232q62 0 82 21.5t41 100.5h100q0 -174 -7 -393q-12 -1 -36 -1q-11 0 -34 0.5t-35 0.5q-21 80 -41 106.5t-59 26.5h-243v-504h371q98 0 135 24 q16 47 30 173q116 -2 194 -2l-3 -127q-7 -152 -10 -196q-169 -26 -397 -26q-109 0 -276 4t-237 4q-211 0 -336 -7v153h112q61 0 87 4q11 41 11 101v893q0 59 -12 104q-25 5 -85 5h-119zM292 1667q0 68 47 111.5t118 43.5q72 0 118.5 -43t46.5 -112q0 -72 -45 -114.5 t-120 -42.5t-120 42.5t-45 114.5zM787 1667q0 68 47 111.5t118 43.5q72 0 118.5 -43t46.5 -112q0 -72 -45 -114.5t-120 -42.5t-120 42.5t-45 114.5z" />
<glyph unicode="&#xcc;" horiz-adv-x="857" d="M68 -13v159h106q58 0 84 4q11 39 11 107v865q0 99 -11 138q-25 5 -83 5h-107v135q171 19 350 19q254 0 371 -16v-138h-107q-58 0 -84 -5q-10 -45 -10 -104v-897q0 -62 10 -109q26 -4 84 -4h106v-159q-148 13 -335 13q-220 0 -385 -13zM190 1947h308l170 -345 q-30 0 -92 -0.5t-92 -0.5z" />
<glyph unicode="&#xcd;" horiz-adv-x="857" d="M68 -13v159h106q58 0 84 4q11 39 11 107v865q0 99 -11 138q-25 5 -83 5h-107v135q171 19 350 19q254 0 371 -16v-138h-107q-58 0 -84 -5q-10 -45 -10 -104v-897q0 -62 10 -109q26 -4 84 -4h106v-159q-148 13 -335 13q-220 0 -385 -13zM184 1602q64 126 170 345h320 q-96 -117 -306 -345h-184z" />
<glyph unicode="&#xce;" horiz-adv-x="857" d="M68 -13v159h106q58 0 84 4q11 39 11 107v865q0 99 -11 138q-25 5 -83 5h-107v135q171 19 350 19q254 0 371 -16v-138h-107q-58 0 -84 -5q-10 -45 -10 -104v-897q0 -62 10 -109q26 -4 84 -4h106v-159q-148 13 -335 13q-220 0 -385 -13zM86 1638q7 28 21 45l188 270h268 l166 -237q3 -4 11 -15t11.5 -16.5t8.5 -14.5t8 -16.5t4 -15.5q-6 -21 -51 -21h-142l-149 184l-146 -184h-145q-47 0 -53 21z" />
<glyph unicode="&#xcf;" horiz-adv-x="857" d="M16 1667q0 68 47 111.5t118 43.5q72 0 118.5 -43t46.5 -112q0 -72 -45 -114.5t-120 -42.5t-120 42.5t-45 114.5zM68 -13v159h106q58 0 84 4q11 39 11 107v865q0 99 -11 138q-25 5 -83 5h-107v135q171 19 350 19q254 0 371 -16v-138h-107q-58 0 -84 -5q-10 -45 -10 -104 v-897q0 -62 10 -109q26 -4 84 -4h106v-159q-148 13 -335 13q-220 0 -385 -13zM511 1667q0 68 47 111.5t118 43.5q72 0 118.5 -43t46.5 -112q0 -72 -45 -114.5t-120 -42.5t-120 42.5t-45 114.5z" />
<glyph unicode="&#xd0;" horiz-adv-x="1663" d="M57 704v3v2v1q0 77 120 77h15.5t49.5 0.5t101.5 0.5h197.5h312v-80q0 -33 -29 -59.5t-91 -26.5h-474h-201v24.5v19.5v14.5v11t-0.5 7.5t-0.5 5zM68 1254v138q310 29 732 29q176 0 309.5 -38t234 -121.5t152.5 -225t52 -339.5q0 -124 -24.5 -223t-67.5 -171.5t-110 -126 t-144 -87t-178 -54t-202.5 -28t-227.5 -7.5q-114 0 -515 -7v146l76 1q53 0 92 8q34 20 34 119v853q0 69 -12 129q-31 5 -101 5h-100zM599 148q13 -2 39 -2q153 0 257.5 28t175.5 93.5t103 172t32 263.5q0 296 -99.5 429t-338.5 133q-25 0 -81.5 -1.5t-87.5 -1.5v-1114z" />
<glyph unicode="&#xd1;" horiz-adv-x="1708" d="M68 1265v132q203 21 357 21q103 0 179 -17q333 -508 629 -978q0 135 -7 730q0 73 -12 108q-33 5 -86 5h-118v136q118 17 317 17q215 0 324 -14v-139h-86q-59 0 -97 -5q-10 -37 -10 -107q-4 -502 -15 -1161h-129q-98 0 -168 16l-618 975q5 -243 8 -724q0 -66 10 -110 q25 -4 85 -4h111v-160q-145 14 -316 14q-196 0 -346 -14v160h112q60 0 87 4q11 36 11 107q0 150 -0.5 448.5t-0.5 447.5q0 70 -10 107q-27 5 -87 5h-124zM461 1712q95 208 249 208q81 0 195 -59q9 -5 28.5 -15t29.5 -15.5t24.5 -10t26.5 -4.5q36 0 67.5 29.5t51.5 69.5 q67 -18 114 -43q-57 -105 -116 -158t-129 -53q-76 0 -190 59q-90 47 -122 47q-17 0 -33.5 -7t-31 -21t-23 -23t-21.5 -27t-14 -20q-60 17 -106 43z" />
<glyph unicode="&#xd2;" horiz-adv-x="1625" d="M114 702q0 348 186.5 541t512.5 193q325 0 511 -194.5t186 -539.5q0 -343 -187 -537.5t-510 -194.5q-326 0 -512.5 195.5t-186.5 536.5zM456 699q0 -281 89.5 -427.5t267.5 -146.5q172 0 263.5 144t91.5 433q0 287 -91 433.5t-264 146.5q-172 0 -264.5 -146.5 t-92.5 -436.5zM573 1947h308l170 -345q-31 0 -92 -0.5t-92 -0.5z" />
<glyph unicode="&#xd3;" horiz-adv-x="1625" d="M114 702q0 348 186.5 541t512.5 193q325 0 511 -194.5t186 -539.5q0 -343 -187 -537.5t-510 -194.5q-326 0 -512.5 195.5t-186.5 536.5zM456 699q0 -281 89.5 -427.5t267.5 -146.5q172 0 263.5 144t91.5 433q0 287 -91 433.5t-264 146.5q-172 0 -264.5 -146.5 t-92.5 -436.5zM567 1602q64 126 170 345h320q-96 -117 -306 -345h-184z" />
<glyph unicode="&#xd4;" horiz-adv-x="1625" d="M114 702q0 348 186.5 541t512.5 193q325 0 511 -194.5t186 -539.5q0 -343 -187 -537.5t-510 -194.5q-326 0 -512.5 195.5t-186.5 536.5zM456 699q0 -281 89.5 -427.5t267.5 -146.5q172 0 263.5 144t91.5 433q0 287 -91 433.5t-264 146.5q-172 0 -264.5 -146.5 t-92.5 -436.5zM469 1638q7 28 21 45l188 270h268l166 -237q3 -4 11 -15t11.5 -16.5t8.5 -14.5t8 -16.5t4 -15.5q-6 -21 -51 -21h-142l-149 184l-146 -184h-145q-47 0 -53 21z" />
<glyph unicode="&#xd5;" horiz-adv-x="1625" d="M114 702q0 348 186.5 541t512.5 193q325 0 511 -194.5t186 -539.5q0 -343 -187 -537.5t-510 -194.5q-326 0 -512.5 195.5t-186.5 536.5zM419 1712q95 208 249 208q81 0 195 -59q9 -5 28.5 -15t29.5 -15.5t24.5 -10t26.5 -4.5q36 0 67.5 29.5t51.5 69.5q67 -18 114 -43 q-57 -105 -116 -158t-129 -53q-76 0 -190 59q-90 47 -122 47q-17 0 -33.5 -7t-31 -21t-23 -23t-21.5 -27t-14 -20q-60 17 -106 43zM456 699q0 -281 89.5 -427.5t267.5 -146.5q172 0 263.5 144t91.5 433q0 287 -91 433.5t-264 146.5q-172 0 -264.5 -146.5t-92.5 -436.5z" />
<glyph unicode="&#xd6;" horiz-adv-x="1625" d="M114 702q0 348 186.5 541t512.5 193q325 0 511 -194.5t186 -539.5q0 -343 -187 -537.5t-510 -194.5q-326 0 -512.5 195.5t-186.5 536.5zM400 1667q0 68 47 111.5t118 43.5q72 0 118.5 -43t46.5 -112q0 -72 -45 -114.5t-120 -42.5t-120 42.5t-45 114.5zM456 699 q0 -281 89.5 -427.5t267.5 -146.5q172 0 263.5 144t91.5 433q0 287 -91 433.5t-264 146.5q-172 0 -264.5 -146.5t-92.5 -436.5zM895 1667q0 68 47 111.5t118 43.5q72 0 118.5 -43t46.5 -112q0 -72 -45 -114.5t-120 -42.5t-120 42.5t-45 114.5z" />
<glyph unicode="&#xd7;" d="M162 992l151 124l332 -334l347 349l130 -138l-341 -348l347 -348l-137 -128l-346 339l-346 -346l-131 134l340 349z" />
<glyph unicode="&#xd8;" horiz-adv-x="1564" d="M114 702q0 348 186.5 541t512.5 193q151 0 285 -54l54 100q24 7 49 7q46 0 65 -42l-59 -121q145 -84 224 -244.5t79 -379.5q0 -343 -187 -537.5t-510 -194.5q-129 0 -261 45l-50 -93q-27 -5 -45 -5q-26 0 -41 9.5t-27 35.5l51 104q-158 89 -242 249.5t-84 386.5zM456 699 q0 -273 86 -421l473 933q-82 71 -202 71q-172 0 -264.5 -146.5t-92.5 -436.5zM630 177q76 -53 183 -53q172 0 263.5 144.5t91.5 433.5q0 252 -70 395z" />
<glyph unicode="&#xd9;" horiz-adv-x="1659" d="M32 1265v141q172 13 326 13q288 0 383 -14v-140h-86q-63 0 -91 -5q-10 -44 -10 -107q0 -107 -0.5 -323t-0.5 -323q0 -184 78.5 -283.5t218.5 -99.5q159 0 230.5 116t71.5 337v576q0 69 -11 107q-27 5 -89 5h-82v141q146 13 328 13q239 0 329 -14v-140h-93q-69 0 -98 -5 q-11 -42 -11 -107v-638q0 -136 -46.5 -241.5t-129 -171t-191 -99t-237.5 -33.5q-588 0 -588 612v571q0 69 -11 107q-30 5 -99 5h-91zM590 1947h308l170 -345q-30 0 -92 -0.5t-92 -0.5z" />
<glyph unicode="&#xda;" horiz-adv-x="1659" d="M32 1265v141q172 13 326 13q288 0 383 -14v-140h-86q-63 0 -91 -5q-10 -44 -10 -107q0 -107 -0.5 -323t-0.5 -323q0 -184 78.5 -283.5t218.5 -99.5q159 0 230.5 116t71.5 337v576q0 69 -11 107q-27 5 -89 5h-82v141q146 13 328 13q239 0 329 -14v-140h-93q-69 0 -98 -5 q-11 -42 -11 -107v-638q0 -136 -46.5 -241.5t-129 -171t-191 -99t-237.5 -33.5q-588 0 -588 612v571q0 69 -11 107q-30 5 -99 5h-91zM584 1602q64 126 170 345h320q-96 -117 -306 -345h-184z" />
<glyph unicode="&#xdb;" horiz-adv-x="1659" d="M32 1265v141q172 13 326 13q288 0 383 -14v-140h-86q-63 0 -91 -5q-10 -44 -10 -107q0 -107 -0.5 -323t-0.5 -323q0 -184 78.5 -283.5t218.5 -99.5q159 0 230.5 116t71.5 337v576q0 69 -11 107q-27 5 -89 5h-82v141q146 13 328 13q239 0 329 -14v-140h-93q-69 0 -98 -5 q-11 -42 -11 -107v-638q0 -136 -46.5 -241.5t-129 -171t-191 -99t-237.5 -33.5q-588 0 -588 612v571q0 69 -11 107q-30 5 -99 5h-91zM486 1638q7 28 21 45l188 270h268l166 -237q3 -4 11 -15t11.5 -16.5t8.5 -14.5t8 -16.5t4 -15.5q-6 -21 -51 -21h-142l-149 184l-146 -184 h-145q-47 0 -53 21z" />
<glyph unicode="&#xdc;" horiz-adv-x="1659" d="M32 1265v141q172 13 326 13q288 0 383 -14v-140h-86q-63 0 -91 -5q-10 -44 -10 -107q0 -107 -0.5 -323t-0.5 -323q0 -184 78.5 -283.5t218.5 -99.5q159 0 230.5 116t71.5 337v576q0 69 -11 107q-27 5 -89 5h-82v141q146 13 328 13q239 0 329 -14v-140h-93q-69 0 -98 -5 q-11 -42 -11 -107v-638q0 -136 -46.5 -241.5t-129 -171t-191 -99t-237.5 -33.5q-588 0 -588 612v571q0 69 -11 107q-30 5 -99 5h-91zM417 1667q0 68 47 111.5t118 43.5q72 0 118.5 -43t46.5 -112q0 -72 -45 -114.5t-120 -42.5t-120 42.5t-45 114.5zM912 1667q0 68 47 111.5 t118 43.5q72 0 118.5 -43t46.5 -112q0 -72 -45 -114.5t-120 -42.5t-120 42.5t-45 114.5z" />
<glyph unicode="&#xdd;" horiz-adv-x="1582" d="M-5 1405q149 14 298 14q275 0 391 -14l16 -140h-67q-59 0 -82 -5q12 -49 36 -91l267 -465q142 257 231 449q25 55 34 107q-21 5 -76 5h-87l29 140q127 14 308 14q191 0 292 -14l-32 -140h-91q-54 0 -80 -5q-14 -20 -26 -35q-5 -7 -6 -9q-8 -35 -221 -401l-173 -300v-239 q0 -78 10 -135q33 -5 84 -5h107v-149q-148 13 -337 13q-220 0 -384 -13v149h106q57 0 83 5q10 34 10 96v253q-9 14 -22 39.5t-20 36.5l-349 587q-12 19 -26.5 46.5t-23 40.5t-18.5 20q-27 5 -86 5h-69zM546 1602q64 126 170 345h320q-96 -117 -306 -345h-184z" />
<glyph unicode="&#xde;" horiz-adv-x="1300" d="M84 1278v116q141 22 343 22q233 0 379 -20v-118h-107q-58 0 -84 -6q-10 -40 -10 -100q42 1 131 1q107 0 192 -12t159.5 -42t124 -77.5t77.5 -121t28 -170.5q0 -417 -631 -417q-51 0 -81 3q0 -167 10 -200q31 -5 84 -5h107v-136q-131 -3 -273 -3q-188 0 -448 5v134h105 q59 0 84 5q11 36 11 107q0 154 -0.5 461.5t-0.5 460.5q0 68 -10 107q-35 6 -114 6h-76zM604 483q13 -1 44 -1h51q157 0 224.5 68t67.5 199q0 143 -66.5 206.5t-214.5 63.5q-71 0 -106 -2v-534z" />
<glyph unicode="&#xdf;" horiz-adv-x="1383" d="M12 -2l5 129h61q55 0 105 13q10 37 10 150v615q-12 -1 -65 -1h-66q0 49 15.5 67t59.5 18q10 0 28.5 -0.5t27.5 -0.5q2 123 42.5 219.5t111 158t165 93.5t207.5 32q237 0 365 -98.5t128 -287.5q0 -64 -18 -104t-63 -89q-56 16 -106 16q-76 0 -118 -32.5t-42 -86.5 q0 -68 45.5 -105.5t136.5 -71.5q76 -28 125.5 -52.5t96 -61.5t68.5 -87.5t22 -117.5q0 -70 -24.5 -127t-65 -95t-95 -64t-112.5 -37.5t-119 -11.5q-77 0 -171.5 20.5t-155.5 47.5q4 41 20 115l26 125l111 -39q44 -138 165 -138q69 0 109 45t40 114q0 26 -10 48.5t-24.5 39.5 t-44.5 37.5t-55 34.5t-71 40t-79 46q-89 54 -130 114.5t-41 151.5q0 114 61.5 172.5t194.5 81.5q53 58 53 136q0 99 -55 151.5t-147 52.5q-118 0 -176 -98t-58 -279v-729q0 -44 2 -120t2 -112q-12 -45 -93 -45q-207 0 -404 7z" />
<glyph unicode="&#xe0;" d="M97 272q0 321 552 321h86v52q0 140 -28 201t-96 61q-154 0 -299 -212l-188 120q7 90 143.5 154.5t318.5 64.5q232 0 346.5 -94t114.5 -297q0 -1 -0.5 -109t-0.5 -263q0 -97 12 -147q23 -1 73 -1h82v-97q-121 -36 -304 -36q-64 0 -100 16q-44 37 -65 103 q-135 -132 -306 -132q-155 0 -248 76.5t-93 218.5zM406 281q0 -82 36.5 -122t99.5 -40q85 0 185 79q8 162 8 279h-96q-111 0 -172 -51.5t-61 -144.5zM406 1537h308l170 -345q-30 0 -92 -0.5t-92 -0.5z" />
<glyph unicode="&#xe1;" d="M97 272q0 321 552 321h86v52q0 140 -28 201t-96 61q-154 0 -299 -212l-188 120q7 90 143.5 154.5t318.5 64.5q232 0 346.5 -94t114.5 -297q0 -1 -0.5 -109t-0.5 -263q0 -97 12 -147q23 -1 73 -1h82v-97q-121 -36 -304 -36q-64 0 -100 16q-44 37 -65 103 q-135 -132 -306 -132q-155 0 -248 76.5t-93 218.5zM400 1192q64 126 170 345h320q-96 -117 -306 -345h-184zM406 281q0 -82 36.5 -122t99.5 -40q85 0 185 79q8 162 8 279h-96q-111 0 -172 -51.5t-61 -144.5z" />
<glyph unicode="&#xe2;" d="M97 272q0 321 552 321h86v52q0 140 -28 201t-96 61q-154 0 -299 -212l-188 120q7 90 143.5 154.5t318.5 64.5q232 0 346.5 -94t114.5 -297q0 -1 -0.5 -109t-0.5 -263q0 -97 12 -147q23 -1 73 -1h82v-97q-121 -36 -304 -36q-64 0 -100 16q-44 37 -65 103 q-135 -132 -306 -132q-155 0 -248 76.5t-93 218.5zM302 1228q7 28 21 45l188 270h268l166 -237q3 -4 11 -15t11.5 -16.5t8.5 -14.5t8 -16.5t4 -15.5q-6 -21 -51 -21h-142l-149 184l-146 -184h-145q-47 0 -53 21zM406 281q0 -82 36.5 -122t99.5 -40q85 0 185 79q8 162 8 279 h-96q-111 0 -172 -51.5t-61 -144.5z" />
<glyph unicode="&#xe3;" d="M97 272q0 321 552 321h86v52q0 140 -28 201t-96 61q-154 0 -299 -212l-188 120q7 90 143.5 154.5t318.5 64.5q232 0 346.5 -94t114.5 -297q0 -1 -0.5 -109t-0.5 -263q0 -97 12 -147q23 -1 73 -1h82v-97q-121 -36 -304 -36q-64 0 -100 16q-44 37 -65 103 q-135 -132 -306 -132q-155 0 -248 76.5t-93 218.5zM252 1302q95 208 249 208q81 0 195 -59q9 -5 28.5 -15t29.5 -15.5t24.5 -10t26.5 -4.5q36 0 67.5 29.5t51.5 69.5q67 -18 114 -43q-57 -105 -116 -158t-129 -53q-76 0 -190 59q-90 47 -122 47q-17 0 -33.5 -7t-31 -21 t-23 -23t-21.5 -27t-14 -20q-60 17 -106 43zM406 281q0 -82 36.5 -122t99.5 -40q85 0 185 79q8 162 8 279h-96q-111 0 -172 -51.5t-61 -144.5z" />
<glyph unicode="&#xe4;" d="M97 272q0 321 552 321h86v52q0 140 -28 201t-96 61q-154 0 -299 -212l-188 120q7 90 143.5 154.5t318.5 64.5q232 0 346.5 -94t114.5 -297q0 -1 -0.5 -109t-0.5 -263q0 -97 12 -147q23 -1 73 -1h82v-97q-121 -36 -304 -36q-64 0 -100 16q-44 37 -65 103 q-135 -132 -306 -132q-155 0 -248 76.5t-93 218.5zM233 1257q0 68 47 111.5t118 43.5q72 0 118.5 -43t46.5 -112q0 -72 -45 -114.5t-120 -42.5t-120 42.5t-45 114.5zM406 281q0 -82 36.5 -122t99.5 -40q85 0 185 79q8 162 8 279h-96q-111 0 -172 -51.5t-61 -144.5zM728 1257 q0 68 47 111.5t118 43.5q72 0 118.5 -43t46.5 -112q0 -72 -45 -114.5t-120 -42.5t-120 42.5t-45 114.5z" />
<glyph unicode="&#xe5;" d="M97 272q0 321 552 321h86v52q0 140 -28 201t-96 61q-154 0 -299 -212l-188 120q7 90 143.5 154.5t318.5 64.5q232 0 346.5 -94t114.5 -297q0 -1 -0.5 -109t-0.5 -263q0 -97 12 -147q23 -1 73 -1h82v-97q-121 -36 -304 -36q-64 0 -100 16q-44 37 -65 103 q-135 -132 -306 -132q-155 0 -248 76.5t-93 218.5zM406 281q0 -82 36.5 -122t99.5 -40q85 0 185 79q8 162 8 279h-96q-111 0 -172 -51.5t-61 -144.5zM426 1382q0 92 61.5 149t157.5 57t157.5 -57t61.5 -149q0 -93 -62 -150t-157 -57q-96 0 -157.5 57t-61.5 150zM521 1382 q0 -57 33 -89t91 -32q56 0 90 32.5t34 88.5t-33.5 89t-90.5 33q-56 0 -90 -33.5t-34 -88.5z" />
<glyph unicode="&#xe6;" horiz-adv-x="1811" d="M97 272q0 321 552 321h86v52q0 152 -26 207t-96 55q-92 0 -164 -56.5t-137 -155.5l-188 120q5 61 69.5 112.5t169 81t223.5 29.5q245 0 355 -124q144 124 359 124q197 0 322.5 -108t125.5 -292q0 -106 -42 -139.5t-148 -33.5h-503q17 -164 101 -250t227 -86q146 0 276 95 l53 -92q-133 -157 -411 -157q-287 0 -433 172q-7 -3 -100 -64q-167 -108 -316 -108q-160 0 -257.5 77.5t-97.5 219.5zM406 281q0 -83 39 -124.5t112 -41.5q88 0 220 75q-37 107 -41 285q-44 2 -72 2q-258 0 -258 -196zM1054 597h393q1 6 1 18q0 127 -46.5 208t-137.5 81 q-189 0 -210 -307z" />
<glyph unicode="&#xe7;" horiz-adv-x="1139" d="M105 496q0 131 46 235t126 169.5t184 99.5t224 34q240 0 375 -113l-17 -200h-168q-46 91 -96 132t-114 41q-107 0 -174.5 -96.5t-67.5 -258.5q0 -204 73.5 -310t197.5 -106q100 0 182 24t166 76l16 -145q-152 -101 -388 -101q-255 0 -410 137.5t-155 381.5zM349 -417 q0 24 6 51q82 -24 134 -24q62 0 98 26t36 73q0 97 -100 113q-3 0 -37 -8q-8 5 -27.5 13t-23.5 10l85 174h101l-56 -107q112 -6 168.5 -46t56.5 -130q0 -111 -69.5 -168.5t-188.5 -57.5q-113 0 -177 41q-6 17 -6 40z" />
<glyph unicode="&#xe8;" horiz-adv-x="1211" d="M105 509q0 238 153.5 381.5t410.5 143.5q197 0 322 -107t125 -289q0 -106 -41.5 -139.5t-147.5 -33.5h-503q17 -161 99.5 -246t223.5 -85q147 0 281 90l53 -92q-135 -155 -411 -155q-262 0 -413.5 140t-151.5 392zM366 1537h308l170 -345q-30 0 -92 -0.5t-92 -0.5z M423 597h393q1 6 1 18q0 126 -46 205.5t-139 79.5q-188 0 -209 -303z" />
<glyph unicode="&#xe9;" horiz-adv-x="1211" d="M105 509q0 238 153.5 381.5t410.5 143.5q197 0 322 -107t125 -289q0 -106 -41.5 -139.5t-147.5 -33.5h-503q17 -161 99.5 -246t223.5 -85q147 0 281 90l53 -92q-135 -155 -411 -155q-262 0 -413.5 140t-151.5 392zM361 1192q64 126 170 345h320q-96 -117 -306 -345h-184z M423 597h393q1 6 1 18q0 126 -46 205.5t-139 79.5q-188 0 -209 -303z" />
<glyph unicode="&#xea;" horiz-adv-x="1211" d="M105 509q0 238 153.5 381.5t410.5 143.5q197 0 322 -107t125 -289q0 -106 -41.5 -139.5t-147.5 -33.5h-503q17 -161 99.5 -246t223.5 -85q147 0 281 90l53 -92q-135 -155 -411 -155q-262 0 -413.5 140t-151.5 392zM262 1228q7 28 21 45l188 270h268l166 -237q3 -4 11 -15 t11.5 -16.5t8.5 -14.5t8 -16.5t4 -15.5q-6 -21 -51 -21h-142l-149 184l-146 -184h-145q-47 0 -53 21zM423 597h393q1 6 1 18q0 126 -46 205.5t-139 79.5q-188 0 -209 -303z" />
<glyph unicode="&#xeb;" horiz-adv-x="1211" d="M105 509q0 238 153.5 381.5t410.5 143.5q197 0 322 -107t125 -289q0 -106 -41.5 -139.5t-147.5 -33.5h-503q17 -161 99.5 -246t223.5 -85q147 0 281 90l53 -92q-135 -155 -411 -155q-262 0 -413.5 140t-151.5 392zM193 1257q0 68 47 111.5t118 43.5q72 0 118.5 -43 t46.5 -112q0 -72 -45 -114.5t-120 -42.5t-120 42.5t-45 114.5zM423 597h393q1 6 1 18q0 126 -46 205.5t-139 79.5q-188 0 -209 -303zM688 1257q0 68 47 111.5t118 43.5q72 0 118.5 -43t46.5 -112q0 -72 -45 -114.5t-120 -42.5t-120 42.5t-45 114.5z" />
<glyph unicode="&#xec;" horiz-adv-x="687" d="M41 884v106q163 35 339 35q146 0 154 -60v-697q0 -98 12 -137q38 -14 78 -14h62l12 -98q-146 -33 -308 -33q-174 0 -174 95q0 25 3.5 95.5t3.5 103.5v519q0 45 -5 78q-29 7 -72 7h-105zM105 1537h308l170 -345q-31 0 -92 -0.5t-92 -0.5z" />
<glyph unicode="&#xed;" horiz-adv-x="687" d="M41 884v106q163 35 339 35q146 0 154 -60v-697q0 -98 12 -137q38 -14 78 -14h62l12 -98q-146 -33 -308 -33q-174 0 -174 95q0 25 3.5 95.5t3.5 103.5v519q0 45 -5 78q-29 7 -72 7h-105zM99 1192q64 126 170 345h320q-96 -117 -306 -345h-184z" />
<glyph unicode="&#xee;" horiz-adv-x="687" d="M1 1228q7 28 21 45l188 270h268l166 -237q3 -4 11 -15t11.5 -16.5t8.5 -14.5t8 -16.5t4 -15.5q-6 -21 -51 -21h-142l-149 184l-146 -184h-145q-47 0 -53 21zM41 884v106q163 35 339 35q146 0 154 -60v-697q0 -98 12 -137q38 -14 78 -14h62l12 -98q-146 -33 -308 -33 q-174 0 -174 95q0 25 3.5 95.5t3.5 103.5v519q0 45 -5 78q-29 7 -72 7h-105z" />
<glyph unicode="&#xef;" horiz-adv-x="687" d="M-69 1257q0 68 47 111.5t118 43.5q72 0 118.5 -43t46.5 -112q0 -72 -45 -114.5t-120 -42.5t-120 42.5t-45 114.5zM41 884v106q163 35 339 35q146 0 154 -60v-697q0 -98 12 -137q38 -14 78 -14h62l12 -98q-146 -33 -308 -33q-174 0 -174 95q0 25 3.5 95.5t3.5 103.5v519 q0 45 -5 78q-29 7 -72 7h-105zM426 1257q0 68 47 111.5t118 43.5q72 0 118.5 -43t46.5 -112q0 -72 -45 -114.5t-120 -42.5t-120 42.5t-45 114.5z" />
<glyph unicode="&#xf0;" horiz-adv-x="1304" d="M115 490q0 122 44 220t119 159.5t171 93.5t204 32q126 0 204 -54q-41 178 -158 278l-242 -142q-78 97 -83 105q8 15 67 51l135 80q-125 71 -289 95l63 108q259 -19 409 -95l247 146q23 -33 42 -58t25 -33.5t10 -14.5q-5 -8 -14 -17t-22.5 -18.5t-25.5 -17.5t-31 -19 t-31 -17.5t-33.5 -17.5t-30.5 -16q154 -123 232.5 -309.5t78.5 -419.5q0 -137 -34.5 -252.5t-101 -203.5t-173.5 -138t-244 -50q-239 0 -388.5 141t-149.5 384zM443 492q0 -203 54 -298t178 -95q103 0 157 115.5t54 320.5q0 61 -10 151q-74 180 -223 180q-104 0 -157 -95.5 t-53 -278.5z" />
<glyph unicode="&#xf1;" horiz-adv-x="1406" d="M73 882v111q146 30 315 30q71 0 167 -17v-117q84 70 188 107t203 37q139 0 218 -84.5t79 -242.5v-447q0 -84 13 -136h139l12 -106q-143 -34 -309 -34q-173 0 -173 96q0 25 3 97t3 106v368q0 225 -132 225q-55 0 -119 -35t-113 -87v-515q0 -76 18 -101.5t89 -38.5l10 -110 q-219 12 -289 12q-138 0 -264 -12l5 110q81 10 100 34.5t19 110.5v558q0 42 -4 73q-25 8 -64 8h-114zM282 1257q95 208 249 208q81 0 195 -59q9 -5 28.5 -15t29.5 -15.5t24.5 -10t26.5 -4.5q36 0 67.5 29.5t51.5 69.5q67 -18 114 -43q-57 -105 -116 -158t-129 -53 q-76 0 -190 59q-90 47 -122 47q-17 0 -33.5 -7t-31 -21t-23 -23t-21.5 -27t-14 -20q-60 17 -106 43z" />
<glyph unicode="&#xf2;" horiz-adv-x="1276" d="M82 504q0 128 45.5 230.5t123.5 167t178 99t214 34.5q246 0 402.5 -144t156.5 -387q0 -130 -46 -232.5t-124 -165.5t-177.5 -96t-211.5 -33q-162 0 -288.5 61.5t-199.5 182.5t-73 283zM342 1544h308l170 -345q-30 0 -92 -0.5t-92 -0.5zM409 505q0 -199 56.5 -294 t176.5 -95q123 0 177.5 95.5t54.5 293.5t-56.5 293t-175.5 95q-122 0 -177.5 -96t-55.5 -292z" />
<glyph unicode="&#xf3;" horiz-adv-x="1276" d="M84 504q0 128 45.5 230.5t123.5 167t178 99t214 34.5q246 0 402.5 -144t156.5 -387q0 -130 -46 -232.5t-124 -165.5t-177.5 -96t-211.5 -33q-162 0 -288.5 61.5t-199.5 182.5t-73 283zM411 505q0 -199 56.5 -294t176.5 -95q123 0 177.5 95.5t54.5 293.5t-56.5 293 t-175.5 95q-122 0 -177.5 -96t-55.5 -292zM478 1199q64 126 170 345h320q-96 -117 -306 -345h-184z" />
<glyph unicode="&#xf4;" horiz-adv-x="1276" d="M89 504q0 128 45.5 230.5t123.5 167t178 99t214 34.5q246 0 402.5 -144t156.5 -387q0 -130 -46 -232.5t-124 -165.5t-177.5 -96t-211.5 -33q-162 0 -288.5 61.5t-199.5 182.5t-73 283zM307 1219q7 28 21 45l188 270h268l166 -237q3 -4 11 -15t11.5 -16.5t8.5 -14.5 t8 -16.5t4 -15.5q-6 -21 -51 -21h-142l-149 184l-146 -184h-145q-47 0 -53 21zM416 505q0 -199 56.5 -294t176.5 -95q123 0 177.5 95.5t54.5 293.5t-56.5 293t-175.5 95q-122 0 -177.5 -96t-55.5 -292z" />
<glyph unicode="&#xf5;" horiz-adv-x="1276" d="M96 504q0 128 45.5 230.5t123.5 167t178 99t214 34.5q246 0 402.5 -144t156.5 -387q0 -130 -46 -232.5t-124 -165.5t-177.5 -96t-211.5 -33q-162 0 -288.5 61.5t-199.5 182.5t-73 283zM257 1256q95 208 249 208q81 0 195 -59q9 -5 28.5 -15t29.5 -15.5t24.5 -10 t26.5 -4.5q36 0 67.5 29.5t51.5 69.5q67 -18 114 -43q-57 -105 -116 -158t-129 -53q-76 0 -190 59q-90 47 -122 47q-17 0 -33.5 -7t-31 -21t-23 -23t-21.5 -27t-14 -20q-60 17 -106 43zM423 505q0 -199 56.5 -294t176.5 -95q123 0 177.5 95.5t54.5 293.5t-56.5 293 t-175.5 95q-122 0 -177.5 -96t-55.5 -292z" />
<glyph unicode="&#xf6;" horiz-adv-x="1330" d="M105 504q0 128 45.5 230.5t123.5 167t178 99t214 34.5q246 0 402.5 -144t156.5 -387q0 -130 -46 -232.5t-124 -165.5t-177.5 -96t-211.5 -33q-162 0 -288.5 61.5t-199.5 182.5t-73 283zM257 1257q0 68 47 111.5t118 43.5q72 0 118.5 -43t46.5 -112q0 -72 -45 -114.5 t-120 -42.5t-120 42.5t-45 114.5zM432 505q0 -199 56.5 -294t176.5 -95q123 0 177.5 95.5t54.5 293.5t-56.5 293t-175.5 95q-122 0 -177.5 -96t-55.5 -292zM752 1257q0 68 47 111.5t118 43.5q72 0 118.5 -43t46.5 -112q0 -72 -45 -114.5t-120 -42.5t-120 42.5t-45 114.5z " />
<glyph unicode="&#xf7;" horiz-adv-x="1162" d="M163 415v91q0 50 23 67t84 17h685v-75q0 -44 -20 -72t-56 -28h-716zM401 149q0 66 43.5 106.5t112.5 40.5t112.5 -40.5t43.5 -106.5q0 -69 -42 -109t-114 -40t-114 40t-42 109zM405 859q0 66 43.5 106.5t112.5 40.5q68 0 112 -41t44 -106q0 -69 -42 -109.5t-114 -40.5 t-114 40.5t-42 109.5z" />
<glyph unicode="&#xf8;" horiz-adv-x="1330" d="M105 504q0 128 45.5 230.5t123.5 167t178 99t214 34.5q246 0 402.5 -144t156.5 -387q0 -130 -46 -232.5t-124 -165.5t-177.5 -96t-211.5 -33q-162 0 -288.5 61.5t-199.5 182.5t-73 283zM321 -126q4 12 16 34t16 30l557 1171q14 30 28 45q91 -4 112 -18q-4 -9 -14.5 -27.5 t-14.5 -27.5l-577 -1213q-26 -8 -52 -8q-37 0 -71 14zM432 505q0 -199 56.5 -294t176.5 -95q123 0 177.5 95.5t54.5 293.5t-56.5 293t-175.5 95q-122 0 -177.5 -96t-55.5 -292z" />
<glyph unicode="&#xf9;" horiz-adv-x="1332" d="M55 993q143 31 304 31q159 0 173 -56q0 -109 0.5 -326.5t0.5 -326.5q0 -34 1.5 -57t8 -50t18.5 -42.5t34 -26.5t53 -11q65 0 142 32.5t94 54.5q11 88 11 299v281q0 47 -7 82q-27 5 -74 5h-75l-6 111q138 31 304 31q147 0 169 -56v-698q0 -89 13 -147h157v-98 q-156 -37 -313 -37q-98 0 -136 23.5t-39 100.5q-88 -66 -169.5 -100.5t-190.5 -34.5q-149 0 -228 83t-79 238v493q0 41 -5 86q-30 5 -78 5h-77zM367 1544h308l170 -345q-31 0 -92 -0.5t-92 -0.5z" />
<glyph unicode="&#xfa;" horiz-adv-x="1332" d="M56 993q143 31 304 31q159 0 173 -56q0 -109 0.5 -326.5t0.5 -326.5q0 -34 1.5 -57t8 -50t18.5 -42.5t34 -26.5t53 -11q65 0 142 32.5t94 54.5q11 88 11 299v281q0 47 -7 82q-27 5 -74 5h-75l-6 111q138 31 304 31q147 0 169 -56v-698q0 -89 13 -147h157v-98 q-156 -37 -313 -37q-98 0 -136 23.5t-39 100.5q-88 -66 -169.5 -100.5t-190.5 -34.5q-149 0 -228 83t-79 238v493q0 41 -5 86q-30 5 -78 5h-77zM504 1199q64 126 170 345h320q-96 -117 -306 -345h-184z" />
<glyph unicode="&#xfb;" horiz-adv-x="1332" d="M62 993q143 31 304 31q159 0 173 -56q0 -109 0.5 -326.5t0.5 -326.5q0 -34 1.5 -57t8 -50t18.5 -42.5t34 -26.5t53 -11q65 0 142 32.5t94 54.5q11 88 11 299v281q0 47 -7 82q-27 5 -74 5h-75l-6 111q138 31 304 31q147 0 169 -56v-698q0 -89 13 -147h157v-98 q-156 -37 -313 -37q-98 0 -136 23.5t-39 100.5q-88 -66 -169.5 -100.5t-190.5 -34.5q-149 0 -228 83t-79 238v493q0 41 -5 86q-30 5 -78 5h-77zM333 1219q7 28 21 45l188 270h268l166 -237q3 -4 11 -15t11.5 -16.5t8.5 -14.5t8 -16.5t4 -15.5q-6 -21 -51 -21h-142l-149 184 l-146 -184h-145q-47 0 -53 21z" />
<glyph unicode="&#xfc;" horiz-adv-x="1359" d="M50 993q143 31 304 31q159 0 173 -56q0 -109 0.5 -326.5t0.5 -326.5q0 -34 1.5 -57t8 -50t18.5 -42.5t34 -26.5t53 -11q65 0 142 32.5t94 54.5q11 88 11 299v281q0 47 -7 82q-28 5 -74 5h-75l-6 111q138 31 304 31q147 0 169 -56v-698q0 -89 13 -147h157v-98 q-156 -37 -313 -37q-98 0 -136 23.5t-39 100.5q-88 -66 -169.5 -100.5t-190.5 -34.5q-149 0 -228 83t-79 238v493q0 41 -5 86q-30 5 -78 5h-77zM267 1257q0 68 47 111.5t118 43.5q72 0 118.5 -43t46.5 -112q0 -72 -45 -114.5t-120 -42.5t-120 42.5t-45 114.5zM762 1257 q0 68 47 111.5t118 43.5q72 0 118.5 -43t46.5 -112q0 -72 -45 -114.5t-120 -42.5t-120 42.5t-45 114.5z" />
<glyph unicode="&#xfd;" horiz-adv-x="1241" d="M-26 1003q97 20 281 20q157 0 286 -20q13 -62 19 -121h-46q-42 0 -63 -8q34 -100 117 -318l106 -278q106 290 188 524q3 10 10.5 34.5t10.5 37.5q-24 8 -65 8h-54l17 121q113 21 256 21q129 0 230 -21v-121h-60q-46 0 -79 -8l-347 -843q-29 -71 -48.5 -115.5t-45.5 -96 t-47 -82t-50 -63t-59 -50t-68.5 -32.5t-83.5 -21t-101 -6q-142 0 -215 33l39 154q100 -37 191 -37q44 0 74.5 13.5t55.5 50t43 78t46 119.5l-341 792q-28 65 -51 106q-38 8 -78 8h-59zM484 1199q64 126 170 345h320q-96 -117 -306 -345h-184z" />
<glyph unicode="&#xfe;" horiz-adv-x="1234" d="M-4 1357v100q145 36 382 36q71 0 92 -26t21 -83v-459q141 110 312 110q205 0 320.5 -140t115.5 -364q0 -124 -37.5 -225t-102 -167t-148 -104t-177.5 -44q-51 -3 -99 -3h-187v-218q0 -81 17 -100t99 -34l10 -108q-172 21 -259 21q-161 0 -301 -21l5 109q32 5 50 8.5 t32.5 13.5t20.5 17t10 30t4.5 40t0.5 58q0 49 0.5 434.5t0.5 1005.5q0 55 -3 106q-47 7 -87 7h-92zM491 482q0 -195 7 -362q80 -9 189 -9q107 0 167 106t60 308q0 369 -184 369q-110 0 -229 -86q-10 -130 -10 -326z" />
<glyph unicode="&#xff;" horiz-adv-x="1297" d="M4 1003q97 20 281 20q157 0 286 -20q13 -62 19 -121h-46q-42 0 -63 -8q34 -100 117 -318l106 -278q106 290 188 524q3 10 10.5 34.5t10.5 37.5q-24 8 -65 8h-54l17 121q113 21 256 21q129 0 230 -21v-121h-60q-46 0 -79 -8l-347 -843q-29 -71 -48.5 -115.5t-45.5 -96 t-47 -82t-50 -63t-59 -50t-68.5 -32.5t-83.5 -21t-101 -6q-142 0 -215 33l39 154q100 -37 191 -37q44 0 74.5 13.5t55.5 50t43 78t46 119.5l-341 792q-28 65 -51 106q-38 8 -78 8h-59zM236 1257q0 68 47 111.5t118 43.5q72 0 118.5 -43t46.5 -112q0 -72 -45 -114.5 t-120 -42.5t-120 42.5t-45 114.5zM731 1257q0 68 47 111.5t118 43.5q72 0 118.5 -43t46.5 -112q0 -72 -45 -114.5t-120 -42.5t-120 42.5t-45 114.5z" />
<glyph unicode="&#x152;" horiz-adv-x="2191" d="M114 702q0 348 186.5 541t512.5 193q72 0 174 -11.5t142 -11.5h941l25 -129q21 -113 30 -177l-184 -17l-2 10q-14 90 -33 135q-92 24 -236 24q-47 0 -224 -4v-467h192q62 0 82 21.5t41 100.5h100q0 -218 -7 -393q-12 -1 -36 -1q-12 0 -35 0.5t-34 0.5q-21 80 -41 106.5 t-59 26.5h-203v-504h331q98 0 135 24q16 47 30 173q116 -2 194 -2v-127l-13 -196q-169 -26 -397 -26l-597 8q-184 -30 -316 -30q-326 0 -512.5 195.5t-186.5 536.5zM456 699q0 -281 89.5 -427.5t267.5 -146.5q40 0 119 5.5t138 10.5l59 5v1108q-224 28 -316 28 q-172 0 -264.5 -146.5t-92.5 -436.5z" />
<glyph unicode="&#x153;" horiz-adv-x="1883" d="M105 504q0 167 72 289.5t192 183.5t270 61q229 0 357 -155q143 155 361 155q191 0 313 -108t122 -292q0 -56 -10.5 -90t-35 -52.5t-57 -24.5t-85.5 -6q-80 0 -238 0.5t-237 0.5q15 -163 97.5 -250.5t222.5 -87.5q139 0 267 96l52 -92q-134 -160 -415 -160 q-221 0 -356 144q-136 -144 -360 -144q-240 0 -386 143.5t-146 388.5zM432 504q0 -395 216 -395q110 0 162.5 97t52.5 298q0 396 -216 396q-108 0 -161.5 -96.5t-53.5 -299.5zM1128 597h363q1 11 1 34q0 116 -44.5 194.5t-123.5 78.5q-175 0 -196 -307z" />
<glyph unicode="&#x178;" horiz-adv-x="1582" d="M-5 1405q149 14 298 14q275 0 391 -14l16 -140h-67q-59 0 -82 -5q12 -49 36 -91l267 -465q142 257 231 449q25 55 34 107q-21 5 -76 5h-87l29 140q127 14 308 14q191 0 292 -14l-32 -140h-91q-54 0 -80 -5q-14 -20 -26 -35q-5 -7 -6 -9q-8 -35 -221 -401l-173 -300v-239 q0 -78 10 -135q33 -5 84 -5h107v-149q-148 13 -337 13q-220 0 -384 -13v149h106q57 0 83 5q10 34 10 96v253q-9 14 -22 39.5t-20 36.5l-349 587q-12 19 -26.5 46.5t-23 40.5t-18.5 20q-27 5 -86 5h-69zM251 1667q0 68 47 111.5t118 43.5q72 0 118.5 -43t46.5 -112 q0 -72 -45 -114.5t-120 -42.5t-120 42.5t-45 114.5zM746 1667q0 68 47 111.5t118 43.5q72 0 118.5 -43t46.5 -112q0 -72 -45 -114.5t-120 -42.5t-120 42.5t-45 114.5z" />
<glyph unicode="&#x2c6;" horiz-adv-x="1205" d="M259 1228q7 28 21 45l188 270h268l166 -237q3 -4 11 -15t11.5 -16.5t8.5 -14.5t8 -16.5t4 -15.5q-6 -21 -51 -21h-142l-149 184l-146 -184h-145q-47 0 -53 21z" />
<glyph unicode="&#x2dc;" horiz-adv-x="1190" d="M193 1302q95 208 249 208q81 0 195 -59q9 -5 28.5 -15t29.5 -15.5t24.5 -10t26.5 -4.5q36 0 67.5 29.5t51.5 69.5q67 -18 114 -43q-57 -105 -116 -158t-129 -53q-76 0 -190 59q-90 47 -122 47q-17 0 -33.5 -7t-31 -21t-23 -23t-21.5 -27t-14 -20q-60 17 -106 43z" />
<glyph unicode="&#x2000;" horiz-adv-x="999" />
<glyph unicode="&#x2001;" horiz-adv-x="1998" />
<glyph unicode="&#x2002;" horiz-adv-x="999" />
<glyph unicode="&#x2003;" horiz-adv-x="1998" />
<glyph unicode="&#x2004;" horiz-adv-x="666" />
<glyph unicode="&#x2005;" horiz-adv-x="499" />
<glyph unicode="&#x2006;" horiz-adv-x="333" />
<glyph unicode="&#x2007;" horiz-adv-x="333" />
<glyph unicode="&#x2008;" horiz-adv-x="249" />
<glyph unicode="&#x2009;" horiz-adv-x="399" />
<glyph unicode="&#x200a;" horiz-adv-x="111" />
<glyph unicode="&#x2010;" horiz-adv-x="765" d="M51 496v80q0 45 21 59t73 14h569v-63q0 -81 -61 -90h-602z" />
<glyph unicode="&#x2011;" horiz-adv-x="765" d="M51 496v80q0 45 21 59t73 14h569v-63q0 -81 -61 -90h-602z" />
<glyph unicode="&#x2012;" horiz-adv-x="765" d="M51 496v80q0 45 21 59t73 14h569v-63q0 -81 -61 -90h-602z" />
<glyph unicode="&#x2013;" horiz-adv-x="1006" d="M-10 496v73q0 52 32.5 66t113.5 14h927v-72q0 -72 -73 -81h-1000z" />
<glyph unicode="&#x2014;" horiz-adv-x="1785" d="M-10 496v73q0 52 32.5 66t113.5 14h1659v-72q0 -72 -87 -81h-1718z" />
<glyph unicode="&#x2018;" horiz-adv-x="566" d="M117 1033q0 129 77.5 245.5t220.5 212.5q44 -27 75 -70q-101 -111 -135 -288q50 -7 81.5 -42t31.5 -85q0 -78 -51 -119t-121 -41q-98 0 -138.5 48t-40.5 139z" />
<glyph unicode="&#x2019;" horiz-adv-x="565" d="M78 916q101 111 135 288q-50 7 -81.5 42t-31.5 85q0 78 51 119t121 41q98 0 138.5 -48t40.5 -139q0 -128 -78 -245.5t-220 -212.5q-43 26 -75 70z" />
<glyph unicode="&#x201a;" horiz-adv-x="578" d="M92 -283q116 111 171 268q-67 15 -106 63t-39 122q0 84 65 136t156 52q107 0 164.5 -63.5t57.5 -176.5q0 -141 -91.5 -257.5t-283.5 -236.5z" />
<glyph unicode="&#x201c;" horiz-adv-x="1035" d="M111 1030q0 130 77.5 247.5t220.5 213.5q42 -25 76 -70q-101 -111 -135 -288q50 -7 81 -42t31 -85q0 -78 -51 -119t-120 -41q-97 0 -138.5 47.5t-41.5 136.5zM581 1033q0 128 78 245.5t220 212.5q43 -26 75 -70q-101 -112 -134 -288q49 -7 80.5 -42t31.5 -85 q0 -78 -50.5 -119t-121.5 -41q-98 0 -138.5 48t-40.5 139z" />
<glyph unicode="&#x201d;" horiz-adv-x="1034" d="M99 916q101 112 134 288q-49 7 -80.5 42t-31.5 85q0 78 50.5 119t121.5 41q98 0 138.5 -48t40.5 -139q0 -128 -78 -245.5t-220 -212.5q-43 26 -75 70zM568 916q101 111 135 288q-50 7 -81 42t-31 85q0 78 50.5 119t120.5 41q97 0 138.5 -47.5t41.5 -136.5 q0 -130 -78 -247.5t-220 -213.5q-42 25 -76 70z" />
<glyph unicode="&#x201e;" horiz-adv-x="1103" d="M62 -283q116 111 171 268q-67 15 -106 63t-39 122q0 84 65 136t156 52q107 0 164.5 -63.5t57.5 -176.5q0 -141 -91.5 -257.5t-283.5 -236.5zM583 -283q116 111 171 268q-67 15 -106 63t-39 122q0 84 65 136t156 52q107 0 164.5 -63.5t57.5 -176.5q0 -141 -91.5 -257.5 t-283.5 -236.5z" />
<glyph unicode="&#x2022;" horiz-adv-x="838" d="M107 623q0 124 90 204t222 80q134 0 223.5 -80.5t89.5 -202.5q0 -124 -90.5 -203.5t-222.5 -79.5q-134 0 -223 80t-89 202z" />
<glyph unicode="&#x2026;" horiz-adv-x="1930" d="M154 136q0 73 43 116t116 43t116 -43.5t43 -115.5q0 -75 -42 -117.5t-117 -42.5t-117 42.5t-42 117.5zM824 136q0 74 43 116.5t117 42.5q72 0 115.5 -43.5t43.5 -115.5q0 -75 -42 -117.5t-117 -42.5q-76 0 -118 42.5t-42 117.5zM1496 136q0 73 42.5 116t115.5 43 q75 0 117.5 -44t42.5 -115q0 -75 -42.5 -117.5t-117.5 -42.5t-116.5 42.5t-41.5 117.5z" />
<glyph unicode="&#x202f;" horiz-adv-x="399" />
<glyph unicode="&#x2039;" horiz-adv-x="700" d="M133 475v106l339 435q71 -27 96 -44q-19 -54 -212 -430q133 -276 197 -421q-32 -28 -88 -49z" />
<glyph unicode="&#x203a;" horiz-adv-x="701" d="M141 972q25 20 92 44l337 -419q0 -17 -0.5 -52t-0.5 -53l-336 -420q-53 17 -91 49q34 83 203 424q-184 366 -204 427z" />
<glyph unicode="&#x205f;" horiz-adv-x="499" />
<glyph unicode="&#x20ac;" horiz-adv-x="1503" d="M70 483l20 84q9 40 31 48.5t86 8.5h65q-1 20 -1 58q0 20 2 60h-180l18 83q4 20 14 33t26.5 18t30.5 6.5t37 1.5h71q48 265 221 411t445 146q143 0 272 -35t201 -97q-10 -238 -10 -250l-223 -10q-22 49 -42 85t-51 74.5t-71.5 59.5t-87.5 21q-139 0 -217 -107.5 t-102 -297.5h521l-24 -86q-5 -19 -23.5 -31.5t-50 -17.5t-54 -6t-60.5 -1h-320q0 -84 4 -118h474q0 -84 -29.5 -112.5t-78.5 -28.5h-347q34 -172 119.5 -263t222.5 -91q118 0 216.5 37t198.5 110l61 -118q-181 -194 -510 -194q-259 0 -432.5 132.5t-222.5 386.5h-220z" />
<glyph unicode="&#x2122;" horiz-adv-x="2078" d="M55 1388q46 5 156 5h430q111 0 157 -5q0 -24 -1.5 -94t-1.5 -94h-71q-5 77 -23 98.5t-65 21.5h-115v-559q0 -49 1 -69q10 -24 35 -31t68 -7v-66q-109 3 -195 3q-88 0 -202 -3v66q43 0 67.5 7t35.5 31q2 40 2 69v559h-136q-60 0 -68 -120h-72q0 24 -1 94t-1 94zM874 588 l5 67q44 0 68.5 7t35.5 30q12 125 28 540l-2 49q-42 44 -123 45v63q97 4 202 4q59 0 104 -6l239 -544q7 15 102 232.5t140 311.5q42 6 98 6q100 0 192 -4v-63q-88 0 -111 -51q2 -97 11 -281l11 -226q5 -46 9 -65.5t17.5 -32.5t28 -14t53.5 -1l4 -67q-84 4 -196 4 q-93 0 -186 -3l3 66q26 0 40.5 2t27 10.5t16.5 24.5v426h-15q-123 -303 -225 -525q-11 0 -33 -0.5t-33 -0.5h-40l-231 546q-18 -412 -18 -427q0 -36 26 -46t79 -10l-4 -66q-70 3 -129 3q-105 0 -194 -4z" />
<glyph unicode="&#x25fc;" horiz-adv-x="1025" d="M0 0v1025h1025v-1025h-1025z" />
<glyph unicode="&#xfb01;" horiz-adv-x="1481" d="M46 870v60q0 28 12 52q38 14 148 14h43v92q0 384 571 384q166 -2 263 -30t145 -89q0 -123 -54 -173q-83 0 -132 11.5t-87 43.5q0 85 -31 107q-52 7 -96 7q-146 0 -215.5 -59t-69.5 -206v-88h254h82q31 0 97.5 0.5t99.5 0.5q130 0 182 -10q10 -37 10 -69v-693 q0 -92 77 -108h86l6 -101q-20 -3 -74 -14t-104 -18t-92 -7q-196 0 -196 179q0 24 1.5 89t1.5 90v437q0 26 -0.5 35.5t-4.5 25.5t-13 21.5t-26 10.5t-44 5h-343v-616q0 -90 25.5 -116.5t114.5 -33.5l28 -109q-215 5 -324 5q-125 0 -308 -5l3 109l53 2q65 2 89.5 23t24.5 75 v666h-203z" />
<glyph unicode="&#xfb02;" horiz-adv-x="1513" d="M46 870v85q3 7 7.5 13.5t12 10.5t14.5 7t18 5t18 3t20 1.5t18.5 0.5h18.5h16h60v92q0 208 138.5 296t432.5 88h64.5h76.5t72 -1t77.5 -3t66 -6t63.5 -10.5t45 -14.5q10 -43 10 -88v-1129q0 -67 24 -85.5t89 -18.5h61v-100q-220 -20 -457 -20q-76 21 -108 90l22 12 q75 35 75 149v954q0 98 -9 120q-61 28 -171 28q-60 0 -89.5 -2t-73 -15t-63.5 -40t-36 -79t-16 -129v-88h247v-84q-20 -42 -106 -42h-141v-616q0 -90 25.5 -116.5t114.5 -33.5l28 -109q-215 5 -324 5q-125 0 -308 -5l3 109l53 2q65 2 89.5 23t24.5 75v666h-203z" />
</font>
</defs>
</svg>
